<svg width="51" height="50" fill="none" xmlns="http://www.w3.org/2000/svg"><g clip-path="url(#a)"><path fill="#D9D9D9" d="M.5 0h50v50H.5z"/><path fill="#000" d="M.5 0h50v50H.5z"/><path d="M25.5 39.5C30.2 39.5 34 33 34 25s-3.8-14.5-8.5-14.5S17 17 17 25s3.8 14.5 8.5 14.5Z" fill="#fff"/><path fill-rule="evenodd" clip-rule="evenodd" d="M9.56 13.5C7.04 13.37 4 18.65 4 25s3.04 11.63 5.56 11.5c2.5-.13 3.94-5.15 3.94-11.5s-1.44-11.37-3.94-11.5Zm31.88 23C43.96 36.63 47 31.35 47 25s-3.04-11.63-5.56-11.5c-2.5.13-3.94 5.15-3.94 11.5s1.44 11.37 3.94 11.5Z" fill="#fff"/></g><defs><clipPath id="a"><rect x=".5" width="50" height="50" rx="16" fill="#fff"/></clipPath></defs></svg>