<svg width="50" height="50" fill="none" xmlns="http://www.w3.org/2000/svg"><rect width="50" height="50" rx="16" fill="#FC3F1D"/><path d="M22.9 37.5H7.28v-4.4c2-1.49 3.7-2.81 5.07-3.97a30.11 30.11 0 0 0 3.37-3.16 11.3 11.3 0 0 0 1.83-2.7 6.4 6.4 0 0 0 .57-2.64c0-1.1-.34-1.97-1-2.6a3.7 3.7 0 0 0-2.74-.96c-1.17 0-2.3.25-3.4.76a13.18 13.18 0 0 0-3.03 2.04v-4.2a10.97 10.97 0 0 1 7.1-2.37 10 10 0 0 1 3.23.5 6.7 6.7 0 0 1 2.5 1.4 6.12 6.12 0 0 1 1.64 2.3c.37.89.56 1.9.56 3.03a7.8 7.8 0 0 1-.66 3.17c-.43 1-1.08 2.01-1.97 3.03a27.5 27.5 0 0 1-3.33 3.24 116.23 116.23 0 0 1-4.8 3.7h10.7v3.83Zm20.17-6.83a6.7 6.7 0 0 1-.64 2.96 6.37 6.37 0 0 1-1.8 2.27 7.96 7.96 0 0 1-2.76 1.43c-1.1.34-2.3.5-3.64.5-1.62 0-3-.19-4.13-.56-1.11-.4-2.02-.86-2.73-1.37v-4.03a12.38 12.38 0 0 0 2.6 1.53 9.85 9.85 0 0 0 3.8.73c1.53 0 2.66-.32 3.4-.96a3.47 3.47 0 0 0 1.1-2.7c0-2.3-1.48-3.44-4.44-3.44H31v-3.8h3a3.9 3.9 0 0 0 2.57-.8c.66-.55 1-1.35 1-2.4 0-.95-.33-1.7-.97-2.23-.64-.53-1.59-.8-2.83-.8a7.3 7.3 0 0 0-3.3.7c-.94.44-1.8.97-2.57 1.57v-4.04a9.49 9.49 0 0 1 2.63-1.36c1.03-.38 2.36-.57 4-.57 1.18 0 2.25.16 3.2.47.96.3 1.77.74 2.44 1.3a5.54 5.54 0 0 1 1.53 2.03c.36.78.53 1.63.53 2.57a5.4 5.4 0 0 1-2.83 4.7c-.53.26-1.09.45-1.67.56a7.21 7.21 0 0 1 3.74 1.8 5.54 5.54 0 0 1 1.6 3.94Z" fill="#fff"/><path d="M0 25h50v9a16 16 0 0 1-16 16H16A16 16 0 0 1 0 34v-9Z" fill="#000" fill-opacity=".1"/></svg>