<svg width="50" height="50" fill="none" xmlns="http://www.w3.org/2000/svg"><path fill-rule="evenodd" clip-rule="evenodd" d="M16 0A16 16 0 0 0 0 16v18c0 4.64 1.98 8.82 5.14 11.75l26.25-24.08-13.15 3.22c-3.6.88-7.65-.45-8.48-4.06a6.65 6.65 0 0 1 4.8-8.1l30.98-7.81C42.63 1.89 38.54 0 34 0H16Zm20 49.88.08-.17-.12-.26c-.56-1.26-.86-1.92-.35-3.45l4.45-14.28-19.77 18.23.02.05H34c.68 0 1.34-.04 2-.12Z" fill="url(#a)"/><path fill-rule="evenodd" clip-rule="evenodd" d="M20.55 50H16c-4.33 0-8.25-1.72-11.13-4.5l25.27-23.2-12.88 3.13a6.6 6.6 0 0 1-8.02-4.96 6.82 6.82 0 0 1 5.02-8.13L45.4 4.77A15.95 15.95 0 0 1 50 16v18a16 16 0 0 1-14.48 15.92 6.6 6.6 0 0 1-.19-4.74l4.26-12.67L20.55 50Z" fill="url(#b)"/><defs><linearGradient id="a" x1="50" y1="47.85" x2="-28.33" y2="-24.86" gradientUnits="userSpaceOnUse"><stop offset=".01" stop-color="#3E3BA0"/><stop offset="1" stop-color="#498BFF"/></linearGradient><linearGradient id="b" x1="0" y1="45.14" x2="121.04" y2="-19.44" gradientUnits="userSpaceOnUse"><stop stop-color="#FFF11D"/><stop offset="1" stop-color="#FFB800"/></linearGradient></defs></svg>