<svg width="50" height="50" fill="none" xmlns="http://www.w3.org/2000/svg"><rect width="50" height="50" rx="16" fill="url(#a)"/><path fill-rule="evenodd" clip-rule="evenodd" d="M0 28.17V34c0 1.46.2 2.87.56 4.2C11 39.98 52.74 19.67 49.53 12.99c-1.4-2.88-7.36-4.65-14.98-4.14a14 14 0 0 1-4.52-.93c-.29-.1-.58-.2-.89-.29a18.26 18.26 0 0 0-13.08.9 17.98 17.98 0 0 0-8.28 7.92c-.32.61-.62 1.25-.93 1.88-.82 1.71-1.63 3.42-2.7 4.6A29.52 29.52 0 0 0 0 28.17Z" fill="#012B5B"/><path fill-rule="evenodd" clip-rule="evenodd" d="M0 31.57V34c0 2.04.38 4 1.08 5.8 5.13 2.7 17.03 2.36 28.7-3.1C40.6 31.61 48.07 23.61 50 17.98V16c0-1.04-.1-2.05-.29-3.03-3.18-4.05-16.38-2.98-29.9 3.35C10.32 20.78 3.06 26.7 0 31.57Z" fill="#1884FF"/><path fill-rule="evenodd" clip-rule="evenodd" d="M0 31.57V34c0 2.04.38 4 1.08 5.8 5.13 2.7 17.03 2.36 28.7-3.1C40.6 31.61 48.07 23.61 50 17.98V16c0-1.04-.1-2.05-.29-3.03-3.18-4.05-16.38-2.98-29.9 3.35C10.32 20.78 3.06 26.7 0 31.57Z" fill="url(#b)"/><path fill-rule="evenodd" clip-rule="evenodd" d="M29.42 34.56c6.7-3.14 11.26-7.52 10.17-9.78-1.08-2.26-7.4-1.54-14.1 1.6-6.7 3.14-11.26 7.51-10.17 9.77 1.08 2.26 7.4 1.55 14.1-1.6Z" fill="#fff"/><defs><radialGradient id="b" cx="0" cy="0" r="1" gradientUnits="userSpaceOnUse" gradientTransform="matrix(6.25 13.54167 -32.86033 15.16628 28.13 30.2)"><stop stop-color="#89C0FF"/><stop offset=".61" stop-color="#1884FF"/><stop offset="1" stop-color="#1884FF"/></radialGradient><linearGradient id="a" x1="21.09" y1="17.97" x2="42.19" y2="48.44" gradientUnits="userSpaceOnUse"><stop offset=".02" stop-color="#0151AE"/><stop offset="1" stop-color="#036DE6"/></linearGradient></defs></svg>