<svg width="50" height="50" fill="none" xmlns="http://www.w3.org/2000/svg"><path fill-rule="evenodd" clip-rule="evenodd" d="M18.06 50H34a16 16 0 0 0 14.53-9.3l-12.38-8.57-8.6 2.27-7.1 4.08L18.05 50ZM34 0H16A16 16 0 0 0 0 15.93v2.16a14.8 14.8 0 0 1 14.1-.84l12.1-5.12a14.5 14.5 0 0 1 15.67-9l3.66 1.78C42.62 1.88 38.53 0 34 0Z" fill="#4E1BBC"/><path fill-rule="evenodd" clip-rule="evenodd" d="M0 22.42V34a16 16 0 0 0 15.92 16h2.59l2.24-11.18a43.3 43.3 0 0 1 7.09-3.94c2.26-.92 5.42-1.7 8.24-2.3l12.3 8.46A15.93 15.93 0 0 0 50 34.11V15.66c-3.12-3.68-6.48-6.88-9.87-8.75l-.9-.38L33.6 8.8 6.88 19.63 0 22.4v.02Z" fill="#C4C4C4"/><path fill-rule="evenodd" clip-rule="evenodd" d="M0 22.42V34a16 16 0 0 0 15.92 16h2.59l2.24-11.18a43.3 43.3 0 0 1 7.09-3.94c2.26-.92 5.42-1.7 8.24-2.3l12.3 8.46A15.93 15.93 0 0 0 50 34.11V15.66c-3.12-3.68-6.48-6.88-9.87-8.75l-.9-.38L33.6 8.8 6.88 19.63 0 22.4v.02Z" fill="url(#a)"/><path fill-rule="evenodd" clip-rule="evenodd" d="M0 22.41V34c0 5.36 2.64 10.1 6.68 13 2.42.21 4.92-.13 7.32-1.1a16.23 16.23 0 0 0 8.82-21.2 16.39 16.39 0 0 0-7.66-8.43L0 22.41Z" fill="url(#b)"/><path fill-rule="evenodd" clip-rule="evenodd" d="M44.86 4.25A15.96 15.96 0 0 1 50 15.9v14.6a16.2 16.2 0 0 1-4.13 2.44 16.25 16.25 0 0 1-21.11-9.07 16.36 16.36 0 0 1-.38-11.33l20.48-8.3Z" fill="url(#c)"/><path fill-rule="evenodd" clip-rule="evenodd" d="M0 17.7V34c0 4.4 1.78 8.4 4.67 11.3A15.05 15.05 0 1 0 0 17.7ZM43.44 3.07A15.98 15.98 0 0 1 50 15.89v12.73a15.05 15.05 0 1 1-6.56-25.54Z" fill="url(#d)"/><path fill-rule="evenodd" clip-rule="evenodd" d="M0 34.15v-2.31c.23-.37.58-.67 1-.84l4-1.61-1.62-3.99a2.15 2.15 0 1 1 3.98-1.61l1.62 3.98 3.98-1.61a2.15 2.15 0 1 1 1.62 3.98l-3.99 1.62 1.62 3.98a2.15 2.15 0 0 1-3.99 1.62l-1.61-3.99L2.62 35c-.98.4-2.07.02-2.62-.84Z" fill="url(#e)"/><path fill-rule="evenodd" clip-rule="evenodd" d="M38.54 14.57a3.02 3.02 0 1 0-2.27-5.61 3.02 3.02 0 0 0 2.27 5.6Zm-3.52 8.3a3.02 3.02 0 1 0-2.27-5.6 3.02 3.02 0 0 0 2.27 5.6Zm13.5-8.72a3.02 3.02 0 1 1-5.6 2.27 3.02 3.02 0 0 1 5.6-2.27ZM43.33 26.4a3.02 3.02 0 1 0-2.27-5.6 3.02 3.02 0 0 0 2.27 5.6Z" fill="url(#f)"/><defs><linearGradient id="a" x1="19.8" y1="14.4" x2="36.07" y2="54.57" gradientUnits="userSpaceOnUse"><stop stop-color="#FFD86A"/><stop offset="1" stop-color="#FFB63C"/></linearGradient><linearGradient id="d" x1="18.09" y1="10.16" x2="29.39" y2="38.06" gradientUnits="userSpaceOnUse"><stop stop-color="#FFE688"/><stop offset="1" stop-color="#FFBC11"/><stop offset="1" stop-color="#FFA919"/></linearGradient><linearGradient id="e" x1="20.6" y1="14.94" x2="27.87" y2="32.88" gradientUnits="userSpaceOnUse"><stop stop-color="#444"/><stop offset="1" stop-color="#222"/></linearGradient><linearGradient id="f" x1="54.07" y1=".08" x2="62.23" y2="20.23" gradientUnits="userSpaceOnUse"><stop stop-color="#444"/><stop offset="1" stop-color="#222"/></linearGradient><radialGradient id="b" cx="0" cy="0" r="1" gradientUnits="userSpaceOnUse" gradientTransform="rotate(67.75 -19.16 21.42) scale(15.9225)"><stop offset=".88" stop-color="#D1730C"/><stop offset="1" stop-color="#D1730C" stop-opacity="0"/></radialGradient><radialGradient id="c" cx="0" cy="0" r="1" gradientUnits="userSpaceOnUse" gradientTransform="matrix(6.01885 14.71202 -14.77033 6.0427 39.8 18.11)"><stop offset=".88" stop-color="#D1730C"/><stop offset="1" stop-color="#D1730C" stop-opacity="0"/></radialGradient></defs></svg>