<svg width="50" height="50" fill="none" xmlns="http://www.w3.org/2000/svg"><path fill-rule="evenodd" clip-rule="evenodd" d="M16 0A16 16 0 0 0 0 16v18a15.9 15.9 0 0 0 2.8 9.04l12-12 7.92 7.93L34.8 26.04l13.72 14.7A15.94 15.94 0 0 0 50 34.11V15.89A16 16 0 0 0 34 0H16Z" fill="url(#a)"/><path fill-rule="evenodd" clip-rule="evenodd" d="M34.77 49.98 34 50H16a16 16 0 0 1-13.62-7.6L14.8 30l19.98 19.98Z" fill="url(#b)"/><path fill-rule="evenodd" clip-rule="evenodd" d="M48.82 40.03A16 16 0 0 1 34 50H16c-1.4 0-2.76-.18-4.06-.52L34.8 25l14.03 15.03Z" fill="url(#c)"/><path d="M16.67 22.92a6.25 6.25 0 1 0 0-12.5 6.25 6.25 0 0 0 0 12.5Z" fill="#FC4714"/><defs><linearGradient id="a" x1="50" y1="50" x2="2.71" y2="-2.44" gradientUnits="userSpaceOnUse"><stop stop-color="#FC0"/><stop offset="1" stop-color="#FFE26D"/></linearGradient><linearGradient id="b" x1="14.79" y1="30" x2="14.79" y2="50" gradientUnits="userSpaceOnUse"><stop stop-color="#655517"/><stop offset="1" stop-color="#010101"/></linearGradient><linearGradient id="c" x1="34.31" y1="3.13" x2="32.72" y2="39.51" gradientUnits="userSpaceOnUse"><stop stop-opacity=".4"/><stop offset="1"/></linearGradient></defs></svg>