<svg width="50" height="50" fill="none" xmlns="http://www.w3.org/2000/svg"><path fill-rule="evenodd" clip-rule="evenodd" d="M.9 10.68C.33 12.34 0 14.13 0 16v18c0 2.32.5 4.52 1.38 6.51l17.37-14.47L.91 10.68ZM50 34V16c0-1.87-.32-3.66-.9-5.32L31.24 26.04l17.37 14.47A15.9 15.9 0 0 0 50 34Z" fill="#FFCA38"/><path fill-rule="evenodd" clip-rule="evenodd" d="M16 50h18a16 16 0 0 0 14.93-10.25l-21.4-17.52a3.8 3.8 0 0 0-5.05 0L1.07 39.75A16 16 0 0 0 16 50Z" fill="#FFDC7C"/><path fill-rule="evenodd" clip-rule="evenodd" d="M34 0H16A16 16 0 0 0 .67 11.4l21.8 19.33a3.8 3.8 0 0 0 5.05 0l21.79-19.4A16 16 0 0 0 34 0Z" fill="url(#a)"/><defs><linearGradient id="a" x1="46.35" y1="-4.69" x2="22.49" y2="25.45" gradientUnits="userSpaceOnUse"><stop stop-color="#FEBE7D"/><stop offset="1" stop-color="#FC4714"/></linearGradient></defs></svg>