<svg width="50" height="50" fill="none" xmlns="http://www.w3.org/2000/svg"><rect width="50" height="50" rx="16" fill="#fff"/><path d="M25 6a15.2 15.2 0 0 0-10.75 25.95c2.75 2.75 9.23 6.73 9.61 10.91.06.63.51 1.14 1.14 1.14.63 0 1.08-.51 1.14-1.14.38-4.18 6.86-8.16 9.61-10.91A15.2 15.2 0 0 0 25 6Z" fill="#F43"/><path d="M25 26.52a5.32 5.32 0 1 0 0-10.64 5.32 5.32 0 0 0 0 10.64Z" fill="#fff"/><path fill-rule="evenodd" clip-rule="evenodd" d="M34 1H16A15 15 0 0 0 1 16v18a15 15 0 0 0 15 15h18a15 15 0 0 0 15-15V16A15 15 0 0 0 34 1ZM16 0A16 16 0 0 0 0 16v18a16 16 0 0 0 16 16h18a16 16 0 0 0 16-16V16A16 16 0 0 0 34 0H16Z" fill="#000" fill-opacity=".12"/></svg>