<svg width="50" height="50" fill="none" xmlns="http://www.w3.org/2000/svg"><path d="M0 16A16 16 0 0 1 16 0h18a16 16 0 0 1 16 16v18a16 16 0 0 1-16 16H16A16 16 0 0 1 0 34V16Z" fill="url(#a)"/><path d="M43.98 24.48a1.56 1.56 0 0 0-.72-.86L16.35 8.54a1.59 1.59 0 0 0-2.36 1.38v5.67l-2.04-.6a1.59 1.59 0 0 0-1.87 2.23l3.9 7.78-3.9 7.78A1.59 1.59 0 0 0 11.95 35l2.04-.6v5.67a1.59 1.59 0 0 0 2.36 1.38l26.9-15.08c.35-.18.6-.5.73-.86.12-.34.12-.7 0-1.04Z" fill="#fff"/><path d="M43.98 24.48a1.56 1.56 0 0 0-.72-.86L16.35 8.54a1.59 1.59 0 0 0-2.36 1.38v5.67l30 8.9Z" fill="#FAFFFE"/><path d="M13.99 40.08a1.59 1.59 0 0 0 2.36 1.38l26.9-15.08c.35-.18.6-.5.73-.86l-30 8.89v5.67Z" fill="#A7E9E9"/><path d="M43.98 24.48 11.95 15a1.59 1.59 0 0 0-1.87 2.23l3.9 7.78h30.09c0-.18-.03-.35-.09-.52Z" fill="#BBF5F5"/><path d="m13.99 25-3.9 7.78A1.59 1.59 0 0 0 11.94 35l32.03-9.5c.06-.16.09-.33.09-.51H13.99Z" fill="#FAFFFE"/><defs><linearGradient id="a" x1="0" y1="50" x2="50" y2="0" gradientUnits="userSpaceOnUse"><stop stop-color="#01BFBF"/><stop offset=".69" stop-color="#30DCDC"/></linearGradient></defs></svg>