<svg width="50" height="50" fill="none" xmlns="http://www.w3.org/2000/svg"><rect width="50" height="50" rx="16" fill="#fff"/><path d="M14.46 10.77a17.7 17.7 0 0 1 8.95-3.4v5.34a12.4 12.4 0 1 0 13.75 9.88l4.49-3.61v-.03a17.7 17.7 0 1 1-27.2-8.18Z" fill="#FCCA00"/><path d="m38.26 13.27.02.04-3 4.76a12.46 12.46 0 0 0-4.26-3.9V25a6.02 6.02 0 1 1-2.66-5V7.62c3.91.75 7.37 2.79 9.9 5.66Z" fill="#FC3F1D"/><path fill-rule="evenodd" clip-rule="evenodd" d="M34 1H16A15 15 0 0 0 1 16v18a15 15 0 0 0 15 15h18a15 15 0 0 0 15-15V16A15 15 0 0 0 34 1ZM16 0A16 16 0 0 0 0 16v18a16 16 0 0 0 16 16h18a16 16 0 0 0 16-16V16A16 16 0 0 0 34 0H16Z" fill="#000" fill-opacity=".12"/></svg>