<svg width="50" height="50" fill="none" xmlns="http://www.w3.org/2000/svg"><rect width="50" height="50" rx="16" fill="url(#a)"/><rect width="50" height="50" rx="16" fill="url(#b)"/><path fill-rule="evenodd" clip-rule="evenodd" d="M0 34.13V16.5s.95.16 1.77.1a3.73 3.73 0 0 0 2.81-5.76 1.19 1.19 0 0 1-.18-.93l.28-1.05a.99.99 0 0 1 1.22-.7l5.02 1.4c.53.14.83.67.7 1.2l-.28 1.01c-.08.32-.33.57-.62.71a3.72 3.72 0 0 0 .72 6.93 3.73 3.73 0 0 0 4.1-5.64c-.19-.27-.27-.6-.19-.92l.26-.97a.99.99 0 0 1 1.21-.7L22 12.61c.53.14.83.68.7 1.2l-.26.93c-.08.32-.32.57-.62.72a3.72 3.72 0 0 0 .72 6.92 3.73 3.73 0 0 0 4.1-5.63c-.19-.28-.27-.61-.19-.93l.24-.89a.99.99 0 0 1 1.21-.7l5.12 1.42c.52.14.83.68.68 1.2l-.3 1.16c-.1.32-.33.57-.63.71a3.72 3.72 0 0 0 .73 6.93 3.73 3.73 0 0 0 4.08-5.64c-.18-.27-.26-.6-.18-.92l.3-1.12a.99.99 0 0 1 1.22-.7l4.93 1.36a1 1 0 0 1 .68 1.22c-.91 3.31-1.84 6.63-2.77 9.94-1.86 6.68-3.73 13.35-5.5 20.05-.74.1-1.49.16-2.25.16H16A16 16 0 0 1 0 34.13Z" fill="#F9DB60"/><defs><linearGradient id="a" x1="31.07" y1="20.39" x2="47.54" y2="0" gradientUnits="userSpaceOnUse"><stop stop-color="#FF8831"/><stop offset="1" stop-color="#FFA767"/></linearGradient><linearGradient id="b" x1="31.07" y1="20.39" x2="47.54" y2="0" gradientUnits="userSpaceOnUse"><stop stop-color="#FF8831"/><stop offset="1" stop-color="#FFA767"/></linearGradient></defs></svg>