<svg width="50" height="50" fill="none" xmlns="http://www.w3.org/2000/svg"><rect width="50" height="50" rx="16" fill="url(#a)"/><circle cx="25" cy="25" r="15.63" fill="#fff"/><path fill-rule="evenodd" clip-rule="evenodd" d="M15.99 50a16 16 0 0 1-6.08-1.2 15.1 15.1 0 0 1 30.18 0c-1.87.77-3.93 1.2-6.08 1.2H16ZM25 32.3a7.3 7.3 0 1 0 0-14.6 7.3 7.3 0 0 0 0 14.6Z" fill="#C4C4C4"/><path fill-rule="evenodd" clip-rule="evenodd" d="M15.99 50a16 16 0 0 1-6.08-1.2 15.1 15.1 0 0 1 30.18 0c-1.87.77-3.93 1.2-6.08 1.2H16ZM25 32.3a7.3 7.3 0 1 0 0-14.6 7.3 7.3 0 0 0 0 14.6Z" fill="url(#b)"/><defs><linearGradient id="a" x1="38.53" y1="62.1" x2="-43.15" y2="-17.8" gradientUnits="userSpaceOnUse"><stop stop-color="#4643B9"/><stop offset="1" stop-color="#498BFF"/></linearGradient><linearGradient id="b" x1="39.65" y1="70.25" x2="71.96" y2="134.49" gradientUnits="userSpaceOnUse"><stop stop-color="#00B2FF"/><stop offset=".57" stop-color="#498BFF"/><stop offset="1" stop-color="#3E3BA0"/></linearGradient></defs></svg>