<svg width="50" height="50" fill="none" xmlns="http://www.w3.org/2000/svg"><rect width="50" height="50" rx="16" fill="url(#a)"/><path d="M25 42.7a17.7 17.7 0 1 0 0-35.4 17.7 17.7 0 0 0 0 35.4Z" fill="#fff"/><path fill-rule="evenodd" clip-rule="evenodd" d="M27.23 21.78a3.9 3.9 0 0 0-4.5.02l-4.53-3.32a1.07 1.07 0 0 0-1.48.22l-.2.25v.02c-.35.47-.25 1.14.23 1.5l4.52 3.3a3.92 3.92 0 1 0 7.43-.07l8.11-6.17c.45-.35.56-.98.24-1.45l-.15-.23a1.07 1.07 0 0 0-1.54-.26l-8.13 6.19Z" fill="#000"/><path fill-rule="evenodd" clip-rule="evenodd" d="M25.28 26.94a1.96 1.96 0 1 0-1.51-.41L20.65 37.3v.03c-.1.4.14.82.55.92a.8.8 0 0 0 .97-.56l3.1-10.76Z" fill="#FD4B47"/><defs><linearGradient id="a" x1="11.98" y1="0" x2="30.73" y2="50" gradientUnits="userSpaceOnUse"><stop stop-color="#4AA6FC"/><stop offset="1" stop-color="#0577F4"/></linearGradient></defs></svg>