<svg width="50" height="50" fill="none" xmlns="http://www.w3.org/2000/svg"><path fill-rule="evenodd" clip-rule="evenodd" d="M50 34V16A16 16 0 0 0 34 0H16c-.95 0-1.88.08-2.78.24L34.8 49.98A16 16 0 0 0 50 34Z" fill="#FC3F1D"/><path fill-rule="evenodd" clip-rule="evenodd" d="M50 34V16A16 16 0 0 0 34 0H16c-.95 0-1.88.08-2.78.24L34.8 49.98A16 16 0 0 0 50 34Z" fill="#2B2B2B"/><path fill-rule="evenodd" clip-rule="evenodd" d="M42.22 21.07A6.04 6.04 0 0 0 39 17.9c.25-1.2.34-2.16.36-2.79h-2.65c-.03.48-.1 1.2-.27 2.07-2.07-.3-4.4-.01-6.64.79a40.7 40.7 0 0 1-.49-3.98c7.96-.45 12.65-2.32 12.87-2.41l-1.02-2.4c-.05.02-4.5 1.78-11.95 2.22-.01-1.8-.07-1.78.03-2.38l-2.66-.03c-.05.5-.04 1.03-.03 2.5h-.24a61.4 61.4 0 0 1-5.11-.22l-.5 2.63c.78.07 3.16.2 5.31.2l.32-.01h.33c.1 1.47.3 3.17.66 5.02-3.53 2.05-6.32 6.03-4.9 9.27a4.09 4.09 0 0 0 3.25 2.45c.26.04.51.06.78.06 1.52 0 3.26-.6 4.92-1.63a15.9 15.9 0 0 0 2.04 2.49l1.82-1.89c-.02-.01-.79-.75-1.76-2.19.44-.39.86-.8 1.25-1.24a18.91 18.91 0 0 0 3.54-5.98c.6.34 1.2.84 1.5 1.6 1.06 2.58-.47 5.56-1.9 6.86l1.8 1.9c2.38-2.15 4.02-6.18 2.56-9.73Zm-16.15 7.18c-.6-.09-.98-.37-1.21-.91-.66-1.5.76-3.92 3.08-5.54a26.19 26.19 0 0 0 2.08 5.22c-1.42.9-2.87 1.39-3.95 1.23Zm6.64-3.52c-.19.21-.39.4-.59.6a23.95 23.95 0 0 1-1.78-4.8 12.22 12.22 0 0 1 5.38-.84 16.35 16.35 0 0 1-3.01 5.04Z" fill="#fff"/><path fill-rule="evenodd" clip-rule="evenodd" d="M14.2.1A16 16 0 0 0 0 16v18a16 16 0 0 0 16 16h18c.6 0 1.2-.03 1.8-.1L14.2.1Z" fill="#FC3F1D"/><path fill-rule="evenodd" clip-rule="evenodd" d="M14.2.1A16 16 0 0 0 0 16v18a16 16 0 0 0 16 16h18c.6 0 1.2-.03 1.8-.1L14.2.1Z" fill="url(#a)" fill-opacity=".4"/><path fill-rule="evenodd" clip-rule="evenodd" d="M15.26 18.26 6.64 38.18h3.53l2.12-5.32h8.72l2.12 5.32h3.53l-8.62-19.92h-2.78Zm1.39 4.1 3.21 7.82h-6.42l3.21-7.82Z" fill="#fff"/><defs><linearGradient id="a" x1="65.24" y1="-5.72" x2="11.97" y2="40.17" gradientUnits="userSpaceOnUse"><stop stop-color="#fff"/><stop offset="1" stop-color="#fff" stop-opacity="0"/></linearGradient></defs></svg>