<svg width="50" height="50" fill="none" xmlns="http://www.w3.org/2000/svg"><rect width="50" height="50" rx="16" fill="#2697D7"/><rect width="50" height="50" rx="16" fill="#A9E6FD"/><path d="M45.27 25.52A20.61 20.61 0 0 0 4.4 21.65l40.68 6.56c.12-.88.18-1.78.18-2.7Z" fill="#FC3F1D"/><path d="M45.27 25.52A20.61 20.61 0 0 0 4.4 21.65l40.68 6.56c.12-.88.18-1.78.18-2.7Z" fill="url(#a)"/><path fill-rule="evenodd" clip-rule="evenodd" d="M27.34 11.06a1.3 1.3 0 0 1 1.06 1.5l-4.28 24.59a3.11 3.11 0 0 0 6.14 1.06l.16-.96a1.3 1.3 0 0 1 2.56.44l-.17.97a5.7 5.7 0 0 1-11.24-1.96l4.27-24.59c.13-.7.8-1.18 1.5-1.05Z" fill="#000"/><path d="M45.27 25.52A20.61 20.61 0 0 0 4.4 21.65l40.68 6.56c.12-.88.18-1.78.18-2.7Z" fill="url(#b)"/><path fill-rule="evenodd" clip-rule="evenodd" d="M24.2 27.94c7.92 1.32 20.47 1.9 20.88.31.41-1.58-7.8-4.39-19.03-6.21-2.73-.45-21.17-3.09-21.63-.4 0 2.13 11.1 4.85 19.79 6.3Z" fill="#D12000"/><mask id="c" style="mask-type:alpha" maskUnits="userSpaceOnUse" x="4" y="20" width="42" height="10"><path fill-rule="evenodd" clip-rule="evenodd" d="M24.2 27.94c7.92 1.32 20.47 1.9 20.88.31.41-1.58-7.8-4.39-19.03-6.21-2.73-.45-21.17-3.09-21.63-.4 0 2.13 11.1 4.85 19.79 6.3Z" fill="#D12000"/></mask><g mask="url(#c)"><path fill-rule="evenodd" clip-rule="evenodd" d="M27.34 11.05c.7.13 1.18.8 1.06 1.5l-4.28 24.6a3.11 3.11 0 0 0 6.13 1.06l.17-.96a1.3 1.3 0 0 1 2.56.44l-.17.97a5.7 5.7 0 0 1-11.24-1.96l4.27-24.59c.12-.7.8-1.18 1.5-1.06Z" fill="#000"/></g><defs><linearGradient id="a" x1="18.56" y1="50.58" x2="24.19" y2="12.59" gradientUnits="userSpaceOnUse"><stop stop-color="#fff"/><stop offset="1" stop-color="#fff" stop-opacity="0"/></linearGradient><linearGradient id="b" x1="27.8" y1="11.71" x2="22.73" y2="42.65" gradientUnits="userSpaceOnUse"><stop stop-color="#FC3F1D"/><stop offset="1" stop-color="#FC3F1D" stop-opacity="0"/></linearGradient></defs></svg>