<svg width="50" height="50" fill="none" xmlns="http://www.w3.org/2000/svg"><rect width="50" height="50" rx="16" fill="#FC3F1D"/><path fill-rule="evenodd" clip-rule="evenodd" d="M24.2 25.32c0-4.14-1.4-7.94-3.69-11l2.45-1.85a21.28 21.28 0 0 1 .47 25.03l-2.52-1.76a18.03 18.03 0 0 0 3.28-10.42Z" fill="#fff"/><path fill-rule="evenodd" clip-rule="evenodd" d="M31.84 25.25c0-5.31-1.87-10.29-4.83-14.46L29.6 9A28.31 28.31 0 0 1 35 25.25c0 5.82-1.96 11.22-5.02 15.75l-2.62-1.71a25.18 25.18 0 0 0 4.48-14.04Zm-14.95.16c0-3.07-1.1-5.86-2.89-8.08l2.46-1.94a15.86 15.86 0 0 1 .6 19.26l-2.56-1.79a12.77 12.77 0 0 0 2.39-7.45Z" fill="#fff"/></svg>