<svg width="50" height="50" fill="none" xmlns="http://www.w3.org/2000/svg"><rect width="50" height="50" rx="16" fill="#fff"/><path fill-rule="evenodd" clip-rule="evenodd" d="M42 25A17 17 0 1 1 21.3 8.4l.77 3.5A13.43 13.43 0 1 0 38.43 25H42ZM25 8a17 17 0 0 1 16.6 13.3l-3.5.77c-1.33-6-6.69-10.5-13.1-10.5V8Zm0 27.05c4.14 0 7.69-2.5 9.23-6.07l-3.27-1.43a6.48 6.48 0 0 1-11.89.08l-3.27 1.42c1.56 3.54 5.1 6 9.2 6Z" fill="#000"/><path fill-rule="evenodd" clip-rule="evenodd" d="M34 1H16A15 15 0 0 0 1 16v18a15 15 0 0 0 15 15h18a15 15 0 0 0 15-15V16A15 15 0 0 0 34 1ZM16 0A16 16 0 0 0 0 16v18a16 16 0 0 0 16 16h18a16 16 0 0 0 16-16V16A16 16 0 0 0 34 0H16Z" fill="#000" fill-opacity=".12"/></svg>