<?xml version="1.0" encoding="UTF-8"?>
<svg id="Layer_1" data-name="Layer 1" xmlns="http://www.w3.org/2000/svg" viewBox="0 0 970 160">
  <path d="M317.49,149.83c-9.86-1.24-17.49-9.63-17.49-19.83v-50c0-7.6-2.83-14.54-7.49-19.83,9.86,1.24,17.49,9.63,17.49,19.83v50c0,7.6,2.83,14.54,7.49,19.83Z"/>
  <path d="M47.49,149.83c-9.86-1.24-17.49-9.63-17.49-19.83v-50c0-7.6-2.83-14.54-7.49-19.83,9.86,1.24,17.49,9.63,17.49,19.83v50c0,7.6,2.83,14.54,7.49,19.83Z"/>
  <path d="M647.49,149.83c-9.86-1.24-17.49-9.63-17.49-19.83V30c0-7.6-2.83-14.54-7.49-19.83,9.86,1.24,17.49,9.63,17.49,19.83v100c0,7.6,2.83,14.54,7.49,19.83Z"/>
  <path d="M387.3,140c-3.45,5.97-9.9,10-17.3,10-10.2,0-18.59-7.63-19.83-17.49,5.29,4.66,12.23,7.49,19.83,7.49h17.3Z"/>
  <path d="M410,130c0,10.2-7.63,18.59-17.49,19.83,4.66-5.29,7.49-12.23,7.49-19.83v-17.3c5.97,3.45,10,9.9,10,17.3Z"/>
  <path d="M371.73,100.05c-.57-.03-1.15-.05-1.73-.05-3.57,0-6.91-.95-9.81-2.58,.81-6.31,4.54-11.68,9.81-14.72v7.3c0,3.53,.61,6.91,1.73,10.05Z"/>
  <path d="M409.83,77.49c-3.18-2.8-6.96-4.94-11.12-6.2-1.26-4.16-3.4-7.94-6.2-11.12,9.04,1.14,16.18,8.28,17.32,17.32Z"/>
  <path d="M387.3,70h-7.3c-12.66,0-23.47,7.84-27.88,18.93-1.35-2.69-2.12-5.72-2.12-8.93,0-11.05,8.95-20,20-20,7.4,0,13.85,4.03,17.3,10Z"/>
  <path d="M477.87,71.05c-2.51-.68-5.15-1.05-7.87-1.05h-10c-7.6,0-14.54,2.83-19.83,7.49,1.24-9.86,9.63-17.49,19.83-17.49,7.83,0,14.58,4.5,17.87,11.05Z"/>
  <path d="M500,80v10h-1.71c-1.72-4.84-4.63-9.11-8.4-12.45-.53-6.64-3.23-12.66-7.38-17.38,9.86,1.24,17.49,9.63,17.49,19.83Z"/>
  <path d="M500,120v10c0,11.05-8.95,20-20,20-7.4,0-13.85-4.03-17.3-10h7.3c13.06,0,24.17-8.35,28.29-20h1.71Z"/>
  <path d="M457.49,149.83c-9.86-1.24-17.49-9.63-17.49-19.83v-30c0-7.4,4.03-13.85,10-17.3v47.3c0,7.6,2.83,14.54,7.49,19.83Z"/>
  <path d="M157.49,149.83c-9.86-1.24-17.49-9.63-17.49-19.83v-47.3c5.97,3.45,10,9.9,10,17.3v30c0,7.6,2.83,14.54,7.49,19.83Z"/>
  <path d="M149.83,77.49c-5.29-4.66-12.23-7.49-19.83-7.49s-14.54,2.83-19.83,7.49c1.24-9.86,9.63-17.49,19.83-17.49s18.59,7.63,19.83,17.49Z"/>
  <path d="M107.49,149.83c-9.86-1.24-17.49-9.63-17.49-19.83v-50c0-7.6-2.83-14.54-7.49-19.83,9.86,1.24,17.49,9.63,17.49,19.83v50c0,7.6,2.83,14.54,7.49,19.83Z"/>
  <path d="M597.49,149.83c-9.86-1.24-17.49-9.63-17.49-19.83v-47.3c5.97,3.45,10,9.9,10,17.3v30c0,7.6,2.83,14.54,7.49,19.83Z"/>
  <path d="M589.83,77.49c-5.29-4.66-12.23-7.49-19.83-7.49s-14.54,2.83-19.83,7.49c1.24-9.86,9.63-17.49,19.83-17.49s18.59,7.63,19.83,17.49Z"/>
  <path d="M547.49,149.83c-9.86-1.24-17.49-9.63-17.49-19.83V30c0-7.6-2.83-14.54-7.49-19.83,9.86,1.24,17.49,9.63,17.49,19.83v100c0,7.6,2.83,14.54,7.49,19.83Z"/>
  <path d="M229.83,77.49c-5.29-4.66-12.23-7.49-19.83-7.49s-14.54,2.83-19.83,7.49c1.24-9.86,9.63-17.49,19.83-17.49s18.59,7.63,19.83,17.49Z"/>
  <path d="M257.49,10.17c-4.66,5.29-7.49,12.23-7.49,19.83v100h-10V30c0-10.2,7.63-18.59,17.49-19.83Z"/>
  <path d="M257.64,150h-27.64c-10.2,0-18.59-7.63-19.83-17.49,5.29,4.66,12.23,7.49,19.83,7.49h21.71c1.32,3.73,3.35,7.11,5.93,10Z"/>
  <path d="M207.49,149.83c-9.86-1.24-17.49-9.63-17.49-19.83v-30c0-7.4,4.03-13.85,10-17.3v47.3c0,7.6,2.83,14.54,7.49,19.83Z"/>
  <path d="M847.49,149.83c-9.86-1.24-17.49-9.63-17.49-19.83v-47.3c5.97,3.45,10,9.9,10,17.3v30c0,7.6,2.83,14.54,7.49,19.83Z"/>
  <path d="M839.83,77.49c-5.29-4.66-12.23-7.49-19.83-7.49s-14.54,2.83-19.83,7.49c1.24-9.86,9.63-17.49,19.83-17.49s18.59,7.63,19.83,17.49Z"/>
  <path d="M797.49,149.83c-9.86-1.24-17.49-9.63-17.49-19.83v-50c0-7.6-2.83-14.54-7.49-19.83,9.86,1.24,17.49,9.63,17.49,19.83v50c0,7.6,2.83,14.54,7.49,19.83Z"/>
  <path d="M919.83,77.49c-5.29-4.66-12.23-7.49-19.83-7.49s-14.54,2.83-19.83,7.49c1.24-9.86,9.63-17.49,19.83-17.49s18.59,7.63,19.83,17.49Z"/>
  <path d="M947.49,10.17c-4.66,5.29-7.49,12.23-7.49,19.83v100h-10V30c0-10.2,7.63-18.59,17.49-19.83Z"/>
  <path d="M947.64,150h-27.64c-10.2,0-18.59-7.63-19.83-17.49,5.29,4.66,12.23,7.49,19.83,7.49h21.71c1.32,3.73,3.35,7.11,5.93,10Z"/>
  <path d="M897.49,149.83c-9.86-1.24-17.49-9.63-17.49-19.83v-30c0-7.4,4.03-13.85,10-17.3v47.3c0,7.6,2.83,14.54,7.49,19.83Z"/>
  <path d="M719.83,77.49c-5.29-4.66-12.23-7.49-19.83-7.49s-14.54,2.83-19.83,7.49c1.24-9.86,9.63-17.49,19.83-17.49s18.59,7.63,19.83,17.49Z"/>
  <path d="M747.49,149.83c-9.86-1.24-17.49-9.63-17.49-19.83v-50c0-7.6-2.83-14.54-7.49-19.83,9.86,1.24,17.49,9.63,17.49,19.83v50c0,7.6,2.83,14.54,7.49,19.83Z"/>
  <path d="M727.64,150h-7.64c-10.2,0-18.59-7.63-19.83-17.49,5.29,4.66,12.23,7.49,19.83,7.49h1.71c1.32,3.73,3.35,7.11,5.93,10Z"/>
  <path d="M697.49,149.83c-9.86-1.24-17.49-9.63-17.49-19.83v-30c0-7.4,4.03-13.85,10-17.3v47.3c0,7.6,2.83,14.54,7.49,19.83Z"/>
</svg>