<?xml version="1.0" encoding="UTF-8"?>
<svg id="Logo" xmlns="http://www.w3.org/2000/svg" viewBox="0 0 300 40">
  <defs>
    <style>
      .cls-1 {
        fill: #c1272d;
      }
    </style>
  </defs>
  <path class="cls-1" d="M74.33,13.97c-.76,.02-1.52,.04-2.27,.06-3.79,.09-7.58,.15-11.37,.19-.94,3.08-1.87,6.17-2.81,9.25-.94,3.08-1.87,6.16-2.81,9.23,4.02,.21,8.05,.38,12.07,.52,.81,.03,1.61,.05,2.41,.08,5.36,.19,10.43-3.29,11.34-7.7,.14-.66,.28-1.32,.42-1.99,.14-.66,.28-1.32,.42-1.99,.91-4.41-2.41-7.81-7.41-7.65Z"/>
  <path class="cls-1" d="M42.96,21.17c1.42-3.89-1.47-7.08-6.47-7.21-.76-.02-1.51-.05-2.27-.08-1.21,2.79-2.42,5.57-3.63,8.36-1.21,2.78-2.42,5.56-3.63,8.33,4.02,.41,8.05,.77,12.07,1.09,.87-2.33,1.75-4.66,2.62-6.98-1.47,3.83,1.68,7.31,7.04,7.66,.8,.05,1.61,.1,2.42,.15,.98-3.04,1.95-6.07,2.93-9.11,.97-3.04,1.95-6.08,2.92-9.13-3.79,.01-7.58,0-11.37-.07-.87,2.34-1.75,4.67-2.62,7Z"/>
  <path class="cls-1" d="M137.86,10.49c-5,.38-9.32,4.66-9.66,9.56-.05,.74-.09,1.49-.14,2.23-.04,.74-.09,1.49-.14,2.23-.33,4.91,3.74,8.82,9.09,8.73,.81-.02,1.61-.03,2.41-.05,4.03-.08,8.04-.17,12.07-.26,0-.78,0-1.56,0-2.34-.02-5.2-4.22-9.2-9.38-8.94,5.2-.22,9.4-4.61,9.38-9.81,0-.78,0-1.56,0-2.34-3.79,.28-7.58,.55-11.37,.83-.76,.05-1.52,.11-2.27,.16Z"/>
  <path class="cls-1" d="M115.92,11.99c-.76,.05-1.52,.1-2.27,.14-3.79,.24-7.58,.46-11.37,.67-.1,.7-.2,1.39-.3,2.09-.69,4.6,2.95,8.24,8.16,8.08-3.13,.1-6.25,.2-9.38,.28-.1,.7-.2,1.39-.3,2.09-.7,4.6,3.08,8.34,8.44,8.32,.81,0,1.61-.01,2.41-.02,4.02-.04,8.05-.09,12.07-.15,.05-.74,.11-1.47,.16-2.21,.34-4.9-3.56-8.69-8.72-8.48,3.13-.11,6.25-.24,9.38-.36,.05-.74,.11-1.47,.16-2.21,.34-4.9-3.44-8.58-8.44-8.24Z"/>
  <path class="cls-1" d="M85.58,21.56c-.13,.67-.26,1.34-.4,2.01-.66,3.34-1.33,6.69-1.99,10.03,.81,.01,1.61,.02,2.41,.03,5.36,.09,10.27-3.62,10.97-8.21,.11-.69,.22-1.38,.33-2.07,.55-3.45,1.09-6.9,1.64-10.35-.76,.04-1.51,.08-2.27,.12-5,.27-9.78,4.03-10.69,8.44Z"/>
  <path class="cls-1" d="M15.82,19.36c-.27,.52-.55,1.04-.82,1.56-1.36,2.59-2.73,5.17-4.1,7.75,.81,.11,1.61,.22,2.41,.32,5.35,.72,11.02-1.74,12.65-5.39,.25-.55,.5-1.09,.75-1.64,1.25-2.74,2.5-5.48,3.74-8.22-.76-.03-1.51-.07-2.27-.1-5-.2-10.54,2.32-12.37,5.73Z"/>
  <path class="cls-1" d="M196.72,19.39c-.78,.02-1.56,.05-2.34,.07-.43-4.26-.86-8.52-1.29-12.78-3.79,.22-7.58,.46-11.37,.7,.31,4.16,.62,8.32,.93,12.49,.06,.83,.13,1.66,.19,2.5,.39,5.5,5.05,9.91,10.4,9.9,.81,0,1.61,0,2.41-.01,4.02-.02,8.05-.02,12.07,0-.11-.87-.22-1.75-.33-2.62-.75-5.81-5.52-10.41-10.69-10.24Z"/>
  <path class="cls-1" d="M274.81,5.72c-.76-.04-1.52-.08-2.27-.11-3.79-.18-7.58-.32-11.37-.42,1.13,4.94,2.27,9.88,3.39,14.83,1.13,4.95,2.26,9.9,3.39,14.85,4.03,.37,8.04,.78,12.07,1.25,.81,.09,1.61,.19,2.41,.29,5.36,.67,8.22-4.34,6.38-11.31-.27-1.05-.55-2.09-.82-3.14-.27-1.05-.55-2.09-.82-3.14-1.84-6.96-7.37-12.87-12.37-13.1Z"/>
  <path class="cls-1" d="M248.39,16.43c-1.32-6.36-6.43-11.49-11.43-11.41-.76,0-1.52,.02-2.27,.03,.86,4.65,1.71,9.31,2.57,13.97,.86,4.66,1.72,9.32,2.57,13.98,4.02,.18,8.05,.39,12.07,.64-.78-3.83-1.56-7.65-2.34-11.47,1.27,6.31,6.64,11.71,12,12.16,.8,.06,1.61,.13,2.41,.2-1.09-4.91-2.19-9.82-3.28-14.72-1.09-4.9-2.19-9.8-3.28-14.7-3.79-.08-7.58-.11-11.37-.12,.78,3.82,1.56,7.64,2.34,11.46Z"/>
  <path class="cls-1" d="M221.85,5.36c-.76,.02-1.52,.05-2.27,.07-.76,.03-1.52,.05-2.27,.08-5,.2-8.45,5.12-7.69,10.93,.12,.88,.23,1.76,.35,2.64,.58,4.4,1.17,8.8,1.75,13.2,.8,0,1.61,.02,2.42,.03,5.36,.08,8.93-4.66,7.97-10.65,.91,5.95,5.98,10.88,11.34,11.09,.81,.03,1.61,.06,2.41,.09-.82-4.62-1.64-9.24-2.46-13.86-.16-.92-.33-1.85-.49-2.77-1.1-6.14-6.06-11.03-11.06-10.84Z"/>
  <path class="cls-1" d="M166.99,18.09c-.23-5.37-4.46-9.41-9.47-9.03-.76,.06-1.52,.11-2.27,.17,.04,3.94,.08,7.88,.12,11.81,.04,3.94,.08,7.88,.12,11.81,.81-.02,1.61-.03,2.41-.05,5.36-.09,9.51-4.51,9.28-9.88,.18,5.33,4.67,9.58,10.03,9.51,.81-.01,1.61-.02,2.41-.04-.27-4.13-.54-8.26-.82-12.39-.27-4.13-.55-8.26-.82-12.39-.76,.05-1.52,.1-2.27,.15-5,.36-8.91,4.98-8.72,10.31Z"/>
</svg>