<?xml version="1.0" encoding="UTF-8"?>
<svg id="Layer_1" data-name="Layer 1" xmlns="http://www.w3.org/2000/svg" viewBox="0 0 40 40">
  <defs>
    <style>
      .cls-1 {
        fill: #cd399f;
      }
    </style>
  </defs>
  <path d="M28.33,1.67H11.67C6.15,1.67,1.67,6.15,1.67,11.67V28.33c0,5.52,4.48,10,10,10H28.33c5.52,0,10-4.48,10-10V11.67c0-5.52-4.48-10-10-10Zm6.67,26.66c0,3.68-2.99,6.67-6.67,6.67H11.67c-3.68,0-6.67-2.99-6.67-6.67V11.67c0-3.68,2.99-6.67,6.67-6.67H28.33c3.68,0,6.67,2.99,6.67,6.67V28.33Z"/>
  <path class="cls-1" d="M28.33,5H11.67c-3.68,0-6.67,2.99-6.67,6.67V28.33c0,3.68,2.99,6.67,6.67,6.67H28.33c3.68,0,6.67-2.99,6.67-6.67V11.67c0-3.68-2.99-6.67-6.67-6.67Zm-1.56,19.89c-1.33,1.79-3.27,2.95-5.48,3.28-.41,.06-.82,.09-1.24,.09-1.77,0-3.49-.56-4.94-1.64-1.79-1.33-2.95-3.27-3.28-5.47-.33-2.2,.22-4.4,1.55-6.19,1.33-1.78,3.27-2.95,5.47-3.27,.81-.13,1.63-.13,2.44,0,3.66,.54,6.48,3.36,7.03,7.02,.32,2.2-.23,4.39-1.55,6.18Z"/>
  <path d="M28.32,18.71c-.55-3.66-3.37-6.48-7.03-7.02-.81-.13-1.63-.13-2.44,0-2.2,.32-4.14,1.49-5.47,3.27-1.33,1.79-1.88,3.99-1.55,6.19,.33,2.2,1.49,4.14,3.28,5.47,1.45,1.08,3.17,1.64,4.94,1.64,.42,0,.83-.03,1.24-.09,2.21-.33,4.15-1.49,5.48-3.28,1.32-1.79,1.87-3.98,1.55-6.18Zm-4.23,4.2c-.8,1.07-1.96,1.77-3.28,1.96-1.33,.2-2.64-.13-3.72-.93-1.07-.79-1.77-1.96-1.96-3.28-.2-1.32,.13-2.64,.93-3.71,.79-1.07,1.96-1.77,3.28-1.97,.24-.03,.49-.05,.73-.05s.49,.02,.74,.05c1.09,.16,2.07,.67,2.8,1.41,.74,.73,1.25,1.71,1.41,2.8,.19,1.33-.14,2.64-.93,3.72Z"/>
  <path d="M29.18,12.5c-.92,0-1.67-.75-1.67-1.67s.74-1.67,1.66-1.67h.02c.92,0,1.67,.75,1.67,1.67s-.75,1.67-1.67,1.67Z"/>
</svg>