<?xml version="1.0" encoding="UTF-8"?>
<svg id="Layer_1" data-name="Layer 1" xmlns="http://www.w3.org/2000/svg" viewBox="0 0 40 40">
  <defs>
    <style>
      .cls-1 {
        fill: #f33;
      }

      .cls-2 {
        fill: #fc0;
      }
    </style>
  </defs>
  <path d="M38.31,9.75c-.12-2.65-2.3-4.75-4.98-4.75H6.67c-2.68,0-4.86,2.1-4.98,4.75-.01,.08-.02,.17-.02,.25V30c0,2.76,2.24,5,5,5h26.66c2.76,0,5-2.24,5-5V10c0-.08-.01-.17-.02-.25Zm-3.31,20.25c0,.92-.75,1.67-1.67,1.67H6.67c-.92,0-1.67-.75-1.67-1.67V10c0-.27,.06-.52,.18-.74,.27-.55,.84-.93,1.49-.93h26.66c.65,0,1.22,.38,1.49,.93,.12,.22,.18,.47,.18,.74V30Z"/>
  <path class="cls-2" d="M35,13.2V30c0,.92-.75,1.67-1.67,1.67H6.67c-.92,0-1.67-.75-1.67-1.67V13.2l14.04,9.83c.29,.2,.63,.3,.96,.3s.67-.1,.96-.3l14.04-9.83Z"/>
  <path class="cls-1" d="M34.82,9.26l-14.82,10.37L5.18,9.26c.27-.55,.84-.93,1.49-.93h26.66c.65,0,1.22,.38,1.49,.93Z"/>
  <path d="M38.33,10c0,.53-.24,1.05-.71,1.37l-2.62,1.83-14.04,9.83c-.29,.2-.63,.3-.96,.3s-.67-.1-.96-.3L5,13.2l-2.62-1.83c-.47-.32-.71-.84-.71-1.37,0-.08,.01-.17,.02-.25,.03-.25,.12-.49,.28-.71,.53-.75,1.57-.93,2.32-.41l.89,.63,14.82,10.37,14.82-10.37,.89-.63c.76-.52,1.79-.34,2.32,.41,.16,.22,.25,.46,.28,.71,.01,.08,.02,.17,.02,.25Z"/>
</svg>