<?xml version="1.0" encoding="UTF-8"?>
<svg id="Layer_1" data-name="Layer 1" xmlns="http://www.w3.org/2000/svg" viewBox="0 0 40 40">
  <defs>
    <style>
      .cls-1 {
        fill: #1da1f2;
      }
    </style>
  </defs>
  <path d="M39.27,3.62c-.57-.39-1.33-.38-1.9,.02-1.18,.83-2.46,1.5-3.82,2-3.37-3.02-8.57-3.13-12.08-.08-2.02,1.76-3.16,4.3-3.14,6.95-4.78-.35-9.17-2.82-11.97-6.8-.34-.49-.92-.76-1.52-.7-.6,.06-1.12,.43-1.36,.98-.08,.17-1.83,4.17-1.6,9.09,.18,4.09,1.79,9.49,7.97,13.31-2.53,1.16-5.33,1.72-8.12,1.61-.79-.03-1.46,.47-1.67,1.22-.21,.74,.12,1.53,.8,1.9,4.14,2.31,8.58,3.46,12.91,3.46s8.2-1.06,11.8-3.17c7.05-4.16,11.1-11.78,11.1-20.92,0-.27-.02-.54-.04-.8,1.61-1.79,2.75-3.95,3.32-6.3,.17-.67-.11-1.38-.68-1.77Zm-5.57,6.31c-.4,.39-.58,.95-.47,1.5,.07,.35,.1,.71,.1,1.07,0,7.92-3.44,14.5-9.45,18.03-4.66,2.74-10.22,3.4-15.64,2,2.14-.62,4.18-1.56,6.03-2.82,.5-.34,.78-.92,.72-1.53-.05-.6-.43-1.12-.98-1.37C4.27,22.48,4.67,14.32,5.66,10.06c3.74,3.83,8.91,5.95,14.38,5.82,.91-.02,1.63-.76,1.63-1.66v-1.69c-.03-1.71,.7-3.34,1.99-4.46,2.42-2.1,6.09-1.84,8.18,.57,.43,.5,1.11,.7,1.74,.51,.39-.12,.77-.25,1.15-.39-.32,.41-.66,.8-1.03,1.17Z"/>
  <path class="cls-1" d="M33.7,9.93c-.4,.39-.58,.95-.47,1.5,.07,.35,.1,.71,.1,1.07,0,7.92-3.44,14.5-9.45,18.03-4.66,2.74-10.22,3.4-15.64,2,2.14-.62,4.18-1.56,6.03-2.82,.5-.34,.78-.92,.72-1.53-.05-.6-.43-1.12-.98-1.37C4.27,22.48,4.67,14.32,5.66,10.06c3.74,3.83,8.91,5.95,14.38,5.82,.91-.02,1.63-.76,1.63-1.66v-1.69c-.03-1.71,.7-3.34,1.99-4.46,2.42-2.1,6.09-1.84,8.18,.57,.43,.5,1.11,.7,1.74,.51,.39-.12,.77-.25,1.15-.39-.32,.41-.66,.8-1.03,1.17Z"/>
</svg>