<?xml version="1.0" encoding="UTF-8"?>
<svg id="Layer_1" data-name="Layer 1" xmlns="http://www.w3.org/2000/svg" viewBox="0 0 40 40">
  <defs>
    <style>
      .cls-1 {
        fill: red;
      }
    </style>
  </defs>
  <path d="M39.21,10.4s-.02-.07-.03-.1c-.54-2.19-2.23-3.92-4.45-4.55-2.98-.73-13.54-.75-14.73-.75s-11.77,.02-14.79,.83c-2.16,.61-3.85,2.35-4.39,4.53-.01,.04-.02,.07-.03,.11C.25,13.47-.02,16.54,0,19.57c-.02,3.07,.25,6.17,.79,9.19,.01,.06,.02,.11,.04,.16,.6,2.11,2.29,3.78,4.41,4.36,2.99,.8,13.56,.82,14.76,.82s11.77-.02,14.79-.83c2.16-.61,3.85-2.35,4.39-4.53,.01-.04,.02-.07,.03-.11,.53-2.98,.8-6.03,.79-9.04,.02-3.07-.25-6.17-.79-9.19Zm-3.27,17.58c-.27,1-1.06,1.8-2.04,2.08-1.94,.52-9.38,.71-13.9,.71s-11.96-.19-13.89-.71c-.97-.27-1.75-1.02-2.05-1.98-.5-2.79-.74-5.65-.73-8.5-.01-2.83,.23-5.67,.73-8.46,.27-1,1.06-1.8,2.04-2.08,1.94-.52,9.38-.71,13.9-.71,3.13,0,11.75,.12,13.88,.64,1,.28,1.79,1.08,2.06,2.09,.5,2.8,.74,5.66,.73,8.53,.01,2.8-.24,5.62-.73,8.39Z"/>
  <path class="cls-1" d="M35.94,11.06c-.27-1.01-1.06-1.81-2.06-2.09-2.13-.52-10.75-.64-13.88-.64-4.52,0-11.96,.19-13.9,.71-.98,.28-1.77,1.08-2.04,2.08-.5,2.79-.74,5.63-.73,8.46-.01,2.85,.23,5.71,.73,8.5,.3,.96,1.08,1.71,2.05,1.98,1.93,.52,9.37,.71,13.89,.71s11.96-.19,13.9-.71c.98-.28,1.77-1.08,2.04-2.08,.49-2.77,.74-5.59,.73-8.39,.01-2.87-.23-5.73-.73-8.53Zm-9.28,9.97l-9.59,5.45c-.25,.15-.54,.22-.82,.22s-.58-.08-.84-.23c-.51-.29-.83-.84-.83-1.44V14.13c0-.59,.32-1.14,.83-1.44,.52-.3,1.15-.3,1.66-.01l9.59,5.45c.52,.3,.84,.85,.84,1.45s-.32,1.16-.84,1.45Z"/>
  <path d="M26.66,18.13l-9.59-5.45c-.51-.29-1.14-.29-1.66,.01-.51,.3-.83,.85-.83,1.44v10.9c0,.6,.32,1.15,.83,1.44,.26,.15,.55,.23,.84,.23s.57-.07,.82-.22l9.59-5.45c.52-.29,.84-.85,.84-1.45s-.32-1.15-.84-1.45Zm-8.74,4.04v-5.17l4.54,2.58-4.54,2.59Z"/>
</svg>