<?xml version="1.0" encoding="UTF-8"?>
<svg id="Layer_1" data-name="Layer 1" xmlns="http://www.w3.org/2000/svg" viewBox="0 0 1000 1000">
  <defs>
    <style>
      .cls-1 {
        fill: #fff;
      }

      .cls-2 {
        fill: none;
        stroke: #000;
        stroke-linecap: round;
        stroke-linejoin: round;
        stroke-width: 5px;
      }
    </style>
  </defs>
  <g>
    <path class="cls-1" d="M500,996.92c-67.08,0-132.16-13.14-193.42-39.05-59.17-25.03-112.32-60.86-157.95-106.49-45.64-45.63-81.46-98.78-106.49-157.95C16.22,632.16,3.08,567.08,3.08,500s13.14-132.16,39.05-193.42c25.03-59.17,60.86-112.32,106.49-157.95,45.64-45.64,98.78-81.46,157.95-106.49C367.84,16.22,432.92,3.08,500,3.08s132.16,13.14,193.42,39.05c59.17,25.03,112.32,60.86,157.95,106.49,45.64,45.64,81.46,98.78,106.49,157.95,25.91,61.26,39.05,126.34,39.05,193.42s-13.14,132.16-39.05,193.42c-25.03,59.17-60.86,112.32-106.49,157.95-45.63,45.64-98.78,81.46-157.95,106.49-61.26,25.91-126.34,39.05-193.42,39.05Z"/>
    <path d="M500,5.58c273.06,0,494.42,221.36,494.42,494.42s-221.36,494.42-494.42,494.42S5.58,773.06,5.58,500,226.94,5.58,500,5.58m0-5c-67.42,0-132.82,13.21-194.4,39.25-59.47,25.15-112.88,61.16-158.75,107.03-45.86,45.86-81.87,99.27-107.03,158.75C13.78,367.18,.58,432.58,.58,500s13.21,132.82,39.25,194.4c25.15,59.47,61.16,112.88,107.03,158.75,45.86,45.86,99.27,81.87,158.75,107.03,61.57,26.04,126.98,39.25,194.4,39.25s132.82-13.21,194.4-39.25c59.47-25.15,112.88-61.16,158.75-107.03,45.86-45.86,81.87-99.27,107.03-158.75,26.04-61.57,39.25-126.98,39.25-194.4s-13.21-132.82-39.25-194.4c-25.15-59.47-61.16-112.88-107.03-158.75-45.86-45.86-99.27-81.87-158.75-107.03C632.82,13.78,567.42,.58,500,.58h0Z"/>
  </g>
  <g>
    <path class="cls-1" d="M500,972.2c-63.75,0-125.59-12.49-183.8-37.11-56.23-23.78-106.73-57.83-150.09-101.2-43.37-43.37-77.41-93.86-101.2-150.09-24.62-58.22-37.11-120.06-37.11-183.8s12.49-125.59,37.11-183.8c23.78-56.23,57.83-106.73,101.2-150.09,43.36-43.37,93.86-77.41,150.09-101.2,58.22-24.62,120.06-37.11,183.8-37.11s125.59,12.49,183.8,37.11c56.23,23.78,106.73,57.83,150.09,101.2,43.37,43.36,77.41,93.86,101.2,150.09,24.62,58.22,37.11,120.06,37.11,183.8s-12.49,125.59-37.11,183.8c-23.78,56.23-57.83,106.73-101.2,150.09s-93.86,77.41-150.09,101.2c-58.22,24.62-120.06,37.11-183.8,37.11Z"/>
    <path d="M500,30.3c259.41,0,469.7,210.29,469.7,469.7s-210.29,469.7-469.7,469.7S30.3,759.41,30.3,500,240.59,30.3,500,30.3m0-5c-64.08,0-126.25,12.55-184.78,37.31-56.53,23.91-107.29,58.14-150.89,101.73-43.59,43.59-77.82,94.36-101.73,150.89-24.75,58.53-37.31,120.69-37.31,184.78s12.55,126.25,37.31,184.78c23.91,56.53,58.14,107.29,101.73,150.89,43.59,43.59,94.36,77.82,150.89,101.73,58.53,24.75,120.69,37.31,184.78,37.31s126.25-12.55,184.78-37.31c56.53-23.91,107.29-58.14,150.89-101.73,43.59-43.59,77.82-94.36,101.73-150.89,24.75-58.53,37.31-120.69,37.31-184.78s-12.55-126.25-37.31-184.78c-23.91-56.53-58.14-107.29-101.73-150.89-43.59-43.59-94.36-77.82-150.89-101.73-58.53-24.75-120.69-37.31-184.78-37.31h0Z"/>
  </g>
  <path d="M501.02,142.16c3.94,0,8.58,.66,13.31,2.83,1.25,.57,4.62,2.22,8.16,5.44,3.82,3.48,8.48,9.41,12.53,26.42,0,0,4.87,35.86,4.87,35.86l-11.14,14.1s-3.13,5.4,7.66,11.66c10.79,6.27,16.02,16.36,16.02,16.36-4.35,.92-8.51,1.36-12.35,1.36-11.41,0-20.05-3.83-22.81-10.06-.75-1.69-1.44-4.4-.61-8.41-2.39-3.62-4.9-8.78-3.4-13.69,1.34-4.37,4.63-4.59,7.09-8.33,6.98-10.64-6.47-28.87-2.16-31.94,.38-.27,.85-.39,1.37-.39,2.48,0,6.14,2.57,7.35,2.57,.16,0,.28-.04,.34-.14,.55-.8-3.29-3.54-7.26-8.39-6.76-8.26-6.91-14.08-11.09-14.84-.24-.04-.46-.07-.68-.07-1.61,0-2.85,1.22-7.05,3.8-11.03,6.78-15.68,6.5-24.94,13.83-3.41,2.7-4.07,3.76-4.45,4.52-2.52,5.04,.82,9.79,1.73,17.02,.7,5.5-.77,6.43-2.21,16.26,0,0-.35,37.76-.35,37.76l-33.08,4.37s-1.66-17.94,6.58-17.94c1.01,0,2.18,.27,3.51,.88,2.78,1.27,5.13,1.76,7.1,1.76,6.64,0,8.92-5.59,8.92-5.59-3.04-4.66-6.76-11.8-7.66-20.89-1.71-17.24,7.97-28.77,3.13-33.61-1.2-1.2-2.94-1.63-4.91-1.63-5.17,0-11.91,3-14.61,3-.57,0-.96-.13-1.11-.46,0,0-.79-1.64,19.25-16.74,0,0,12.19-24.37,33.43-25.42,1.89-.5,5.31-1.26,9.52-1.26m0-5h0c-3.43,0-6.89,.44-10.29,1.29-21.08,1.37-33.74,21.97-36.54,27.06-8.02,6.07-13.66,10.72-16.77,13.81-1.67,1.66-5.1,5.08-2.91,8.76,1.05,1.85,3.06,2.94,5.44,2.94,1.83,0,3.89-.59,6.49-1.33,2.59-.74,5.82-1.67,8.12-1.66,.7,0,1.1,.09,1.28,.15,.15,1.2-.79,4.54-1.5,7.02-1.66,5.86-3.94,13.87-2.98,23.57,.68,6.89,2.9,13.65,6.6,20.12-.67,.48-1.61,.87-2.88,.87-1.43,0-3.12-.44-5.02-1.31-1.94-.89-3.82-1.33-5.59-1.33-2.85,0-5.39,1.13-7.34,3.26-5.26,5.76-4.44,17.79-4.22,20.14,.12,1.35,.8,2.6,1.86,3.45,.89,.71,1.99,1.09,3.12,1.09,.22,0,.44-.01,.66-.04l33.08-4.37c2.47-.33,4.32-2.42,4.34-4.91,.27-29.63,.33-36.02,.34-37.41,.52-3.46,1.03-5.71,1.45-7.53,.73-3.2,1.26-5.51,.73-9.74-.36-2.83-1.02-5.24-1.6-7.36-1.03-3.77-1.35-5.33-.62-6.79,.03-.07,.41-.72,3.08-2.84,4.79-3.79,8.11-5.29,12.32-7.19,3.34-1.51,7.12-3.21,12.14-6.3,1.23-.76,2.22-1.4,3.01-1.92,.43-.28,.89-.58,1.26-.81,.44,.65,1.02,1.74,1.52,2.67,1.26,2.35,2.95,5.51,5.78,9.13-.03,.02-.06,.04-.08,.06-1.72,1.22-3.59,3.7-2.76,8.59,.36,2.11,1.16,4.54,2,7.11,1.96,5.96,4.39,13.37,1.64,17.57-.6,.92-1.32,1.49-2.3,2.28-1.76,1.41-4.16,3.33-5.38,7.33-1.5,4.9-.51,10.35,2.94,16.21-.4,3.42,.03,6.57,1.27,9.37,3.62,8.16,13.85,13.04,27.39,13.04,4.3,0,8.8-.49,13.39-1.47,1.53-.32,2.81-1.34,3.48-2.75,.67-1.41,.64-3.05-.08-4.44-.24-.47-6.03-11.47-17.95-18.39-4.43-2.57-5.35-4.46-5.54-5.13l10.44-13.21c.84-1.07,1.21-2.43,1.03-3.77l-4.87-35.86c-.02-.16-.05-.32-.09-.48-4.33-18.19-9.52-24.84-14.02-28.95-3.59-3.27-7.12-5.23-9.45-6.29-4.76-2.18-9.94-3.28-15.39-3.28h0Z"/>
  <path d="M551.67,254.75c.27,0,.53,.03,.77,.08,5.43,1.26,4.77,1.68,1.42,1.68-1.68,0-4.05-.11-6.65-.27,1.77-.97,3.28-1.5,4.47-1.5m-22.68,0s10.24,1,18.21,1.5c-22.03,12.11-85.22,93.99-97.55,110.59,7.1-13.55-11.9-37.15-11.9-37.15,0,0-.91,14.62-13.97,35.51-4.45,7.13-11.58,9.7-19.27,9.7-14.85,0-31.78-9.58-35.57-14.4-5.74-7.31,68.94-100.45,68.94-100.45l33.08-4.37s-20.54,13.95-1.74,31.7c2.82,2.66,6.13,3.79,9.73,3.79,20.43,0,50.04-36.43,50.04-36.43m-58.03,.93h0m-21.32,111.16c-.37,.7-.81,1.38-1.32,2.02-.5,.62-.75,.92-.77,.92-.05,0,.69-1.05,2.1-2.94m79.34-117.09c-1.5,0-2.92,.67-3.88,1.85h0c-7.83,9.62-31.38,34.58-46.16,34.58-2.54,0-4.54-.77-6.3-2.43-4.5-4.25-6.63-8.43-6.33-12.41,.48-6.38,6.88-11.11,7.43-11.51,1.33-.9,2.21-2.42,2.21-4.15,0-2.74-2.2-4.97-4.94-5-.02,0-.04,0-.07,0-.06,0-.12,0-.18,0-.19,0-.37,.02-.55,.05l-32.99,4.36c-1.28,.17-2.44,.82-3.25,1.83-.19,.23-18.94,23.64-36.74,47.63-10.5,14.15-18.63,25.75-24.17,34.49-9.25,14.57-11.21,20.54-8.06,24.55,4.52,5.75,22.94,16.31,39.5,16.31,10.46,0,18.59-4.17,23.51-12.05,6.41-10.26,10.04-19.13,12.09-25.7,4.17,7.25,7.92,16.41,5.26,22.06-.59,.79-1.04,1.42-1.37,1.87-.74,1.04-2.29,3.21-.92,5.94,.85,1.69,2.58,2.75,4.47,2.75,2.45,0,3.63-1.48,4.68-2.79,.61-.77,1.17-1.59,1.64-2.45,18.74-25.21,74.34-95.53,94.55-108.21,2.26,.12,4.08,.19,5.43,.19,1.04,0,1.82-.04,2.46-.11,4.4-.52,5.02-3.96,5.1-4.65,.11-.98,.14-4.3-4.25-5.82-.84-.29-2.02-.61-3.59-.97-.61-.14-1.24-.21-1.89-.21-1.67,0-3.49,.47-5.52,1.42-7.56-.5-16.58-1.38-16.68-1.39-.16-.02-.33-.02-.49-.02h0Z"/>
  <path d="M379.46,338.65c1.83,0,16.93,.53,29.18,17.68,4.66,6.52,8.44,8.62,11.39,8.62,2.77,0,4.79-1.85,6.08-3.63-2.12,3.58-5.77,9.07-8.93,10.44-.2,.09-.41,.13-.64,.13-5.03,0-15.39-21.32-24.81-21.32-.11,0-.22,0-.32,0-9.92,.52-19.81,.82-19.81,.82l7.68-12.75s.06,0,.18,0m48.43,19.49s-.59,1.56-1.78,3.18c1.09-1.85,1.78-3.18,1.78-3.18m-48.43-24.49c-.24,0-.37,0-.37,0-1.67,.08-3.23,.98-4.1,2.42l-7.68,12.75c-.94,1.57-.96,3.53-.03,5.11,.9,1.54,2.54,2.48,4.32,2.48,.05,0,.1,0,.15,0,.1,0,10.06-.3,19.93-.82h.06c3.06,0,8.99,7.33,12.17,11.27,4.72,5.83,8.13,10.05,12.64,10.05,.91,0,1.8-.18,2.63-.54,1.28-.55,5.15-2.23,11.13-12.29,1.42-1.99,2.14-3.81,2.27-4.17,.93-2.48-.23-5.26-2.66-6.33-.66-.29-1.34-.43-2.02-.43-1.82,0-3.57,1-4.45,2.72-.03,.06-.6,1.16-1.49,2.68-.41,.53-1.2,1.41-1.92,1.41-.27,0-2.79-.18-7.32-6.53-13.73-19.22-31.29-19.77-33.25-19.77h0Z"/>
  <path d="M557.38,254.32c9.6,0,14.21,5.73,14.21,5.73,0,0-32.9,4.87-49.62,29.94-16.71,25.07-102.89,146.76-102.89,146.76,0,0,4.18-45.44,29.25-67.89,25.07-22.46,82.33-106.68,98.87-112.62,3.86-1.39,7.25-1.92,10.18-1.92m0-5h0c-3.78,0-7.78,.74-11.87,2.21-9.9,3.55-27.58,25.28-55.53,60.64-16.85,21.32-34.28,43.37-44.99,52.96-26.23,23.5-30.71,69.23-30.89,71.16-.21,2.25,1.12,4.36,3.25,5.15,.57,.21,1.15,.31,1.73,.31,1.59,0,3.12-.76,4.08-2.11,.86-1.22,86.41-122.03,102.97-146.87,15.24-22.86,45.89-27.73,46.2-27.77,1.77-.27,3.26-1.46,3.91-3.13,.65-1.67,.36-3.55-.76-4.95-2.27-2.82-8.63-7.6-18.1-7.6h0Z"/>
  <path d="M571.59,260.05s16.19,2.79,18.8,8.53c2.61,5.74-34.99,14.62-56.41,79.38-21.41,64.76-66.85,51.7-81.47,69.98-14.05,17.57-58.54,107.97-53.62,128.9-4.16-11.45-20.67-65.52,20.19-110.1,45.96-50.14,152.5-176.7,152.5-176.7m-172.69,286.8c.52,1.43,.85,2.19,.85,2.19-.37-.61-.65-1.34-.85-2.19m172.69-291.8c-1.46,0-2.87,.64-3.82,1.78-1.06,1.26-107,127.06-152.36,176.54-18.17,19.82-27.69,43.62-28.29,70.74-.47,20.94,4.66,37.7,7,44.19,.32,1.24,.77,2.35,1.35,3.31,.93,1.55,2.59,2.42,4.29,2.42,.77,0,1.55-.18,2.27-.55,2.34-1.2,3.35-4,2.32-6.42,0,0-.24-.57-.63-1.62-1.25-6.36,3.19-25.94,19.45-62.27,13.04-29.15,27.15-54.47,33.26-62.11,3.83-4.79,10.91-7.11,19.86-10.04,19.93-6.52,47.22-15.45,62.45-61.5,14.83-44.84,37.51-61.88,48.42-70.07,2.38-1.79,4.27-3.21,5.61-4.55,3.59-3.59,2.9-6.8,2.18-8.4-1.71-3.77-6.09-6.75-13.39-9.11-4.66-1.51-8.93-2.25-9.11-2.28-.28-.05-.57-.07-.85-.07h0Z"/>
  <path d="M529.73,468.94c28.3,0,52.82,4.19,60.79,14.82,16.06,21.41,3.53,211,3.53,211,0,0-37.6,41.78-43.35,45.44-5.74,3.66-18.28,76.25-30.81,78.86-4.21,.88-13.65,2.34-24.67,2.34-21.83,0-49.86-5.74-55.76-33.15-8.88-41.26-10.45-76.25-10.45-76.25l-8.3-193.95c5.63-20.73,13.49-35.46,24.49-38.46,23.15-6.31,55.79-10.64,84.53-10.64m-110.64,11.1l1.63,38.01c-17.88,65.88-13.22,192.34-15.2,195.51-2.61,4.18-26.11,22.98-26.11,22.98l20.35-187.49,19.34-69.01m110.64-16.1c-28.48,0-61.38,4.15-85.84,10.82-7.49,2.04-13.86,8.11-19.23,18.38l-.57-13.32c-.11-2.46-1.98-4.47-4.42-4.75-.19-.02-.39-.03-.58-.03-2.22,0-4.2,1.47-4.81,3.65l-19.34,69.01c-.07,.27-.13,.54-.16,.81l-20.35,187.49c-.22,2.01,.79,3.95,2.56,4.92,.75,.41,1.58,.62,2.41,.62,1.11,0,2.22-.37,3.12-1.1,7.27-5.81,24.47-19.81,27.23-24.23,1.16-1.85,1.25-2.54,1.46-25.52,.27-29.57,.76-82.86,6.4-128.26l6.41,149.78c.02,.36,1.69,35.9,10.55,77.09,3,13.92,11.3,24.13,24.69,30.34,9.67,4.49,21.76,6.76,35.96,6.76,10.29,0,20.01-1.26,25.69-2.45,9.95-2.07,16.18-22.23,25.27-55.18,2.71-9.85,6.08-22.03,7.76-24.74,7.2-5.36,37.65-39.06,43.83-45.93,.75-.83,1.2-1.9,1.27-3.01,.03-.48,3.15-48.08,4.27-97.69,.66-29.2,.5-53.39-.47-71.9-1.69-32.41-5.56-41.06-8.32-44.74-10.43-13.9-40.99-16.82-64.79-16.82h0Z"/>
  <path d="M536.72,468.42c17.19,0,32.52,4.29,32.52,4.29l17.13,53.11c-4.33-5.25-15.33-15.03-41.94-33.18-4.39-3-8.37-4.37-11.99-4.37-40.47,0-34.5,172.54-34.5,172.54l-15.67,123.78c-50.66-106.54,9.02-289.86,9.02-289.86,5.79-21.23,26.71-26.31,45.42-26.31m49.65,57.4c4.39,5.33,1.93,5.99,1.93,5.99l-1.93-5.99m-49.65-62.4c-27.47,0-44.83,10.33-50.21,29.88-.86,2.66-15.32,48.26-23.66,105.69-5.03,34.66-6.89,66.82-5.52,95.6,1.72,36.24,8.6,67.24,20.44,92.15,.84,1.76,2.61,2.85,4.51,2.85,.26,0,.53-.02,.79-.06,2.19-.35,3.89-2.11,4.17-4.31l15.67-123.78c.03-.27,.05-.53,.04-.8-1.31-37.86,.06-141.06,21.83-163.59,2.45-2.54,4.96-3.77,7.67-3.77s5.76,1.18,9.17,3.5c25.71,17.54,36.13,26.78,40.3,31.53l1.63,5.04c.68,2.11,2.64,3.47,4.76,3.47,.43,0,.87-.06,1.31-.17,1.49-.4,3.34-1.66,4.08-3.98,1.08-3.4-.92-6.79-2.84-9.25l-16.85-52.23c-.51-1.6-1.8-2.83-3.41-3.28-.65-.18-16.19-4.48-33.87-4.48h0Z"/>
  <path d="M590.39,268.58s14.62,80.93,26.64,86.69c9.28,4.44-24.43,26.36-49.88,26.36-7.51,0-14.3-1.91-19.06-6.73l-37.03,15.38c12.59-6.24,36.17-21.98,49.52-56.41,18.84-48.57,29.81-65.28,29.81-65.28m-79.33,121.7c-5.17,2.56-8.49,3.53-8.49,3.53l8.49-3.53m79.33-126.7c-1.66,0-3.24,.83-4.18,2.26-.46,.7-11.47,17.71-30.29,66.22-12.65,32.61-34.77,47.61-46.94,53.67l-8.33,3.46c-2.45,1.02-3.68,3.77-2.8,6.28,.72,2.05,2.64,3.34,4.72,3.34,.46,0,.93-.06,1.4-.2,.15-.04,3.74-1.1,9.17-3.77l34-14.13c5.13,3.93,11.85,5.92,20.01,5.92,10.46,0,23.39-3.46,35.47-9.5,5.67-2.83,19.04-10.25,20.78-17.89,.8-3.53-.83-6.84-4.17-8.46-.66-.43-6.07-5-15.35-42.96-4.96-20.29-8.53-39.93-8.56-40.12-.36-2.01-1.92-3.6-3.92-4.01-.33-.07-.67-.1-1-.1h0Z"/>
  <path d="M548.08,374.9s9.66,60.03,29.25,83.53c19.59,23.5,13.19,25.33,13.19,25.33,0,0-50.96-28.76-105.52-28.76-7.68,0-15.42,.57-23.11,1.87-8.52,1.44-14.09,2.06-17.35,2.06-20.6,0,50.8-24.78,50.8-24.78,0,0-50.4-1.01-37.86-4.81s90.04-36.33,90.61-54.43m0-5c-.11,0-.21,0-.32,.01-2.57,.16-4.6,2.26-4.68,4.83-.03,.89-1.34,9.27-38.12,28.29-20.45,10.58-42.73,19.62-48.95,21.51-5.36,1.63-5.75,4.88-5.5,6.67,.66,4.77,6.01,5.44,10.72,6.03,2.36,.3,5.32,.57,8.84,.82-1.37,.52-2.74,1.06-4.12,1.6-8.09,3.17-14.52,5.9-19.13,8.12-6.71,3.23-11.78,6.1-10.95,11,.58,3.42,3.49,5.15,8.65,5.15,3.75,0,9.69-.7,18.18-2.13,7.06-1.19,14.55-1.8,22.27-1.8,52.56,0,102.58,27.84,103.08,28.12,.76,.43,1.6,.64,2.46,.64,.46,0,.92-.06,1.37-.19,1.54-.44,3.48-1.83,4.27-4.39,1.15-3.73,.48-10.38-14.99-28.95-18.48-22.17-28.06-80.54-28.15-81.12-.39-2.44-2.5-4.2-4.93-4.2h0Z"/>
  <path d="M354.77,270.48c.27,0,.62,.16,1.09,.52,3.88,2.95,30.92,4.5,26.77,15.12s-16.33,19.73-10.21,26.36c6.12,6.62,42.62,46.34,39.03,52.74-3.35,5.95-26.2,26.71-35.13,26.71-.66,0-1.24-.11-1.74-.35,0,0-34.29-107.59-26.31-110.32,7.01-2.39,4.56-10.77,6.49-10.77m0-5h0c-1.97,0-4.43,1.08-5.43,4.12-.29,.87-.41,1.74-.53,2.66-.41,3.04-.79,3.79-2.14,4.25-5.82,1.99-5.43,9.68-2.54,24.1,1.88,9.38,5.07,22.22,9.5,38.15,7.51,27.02,16.12,54.05,16.2,54.32,.42,1.3,1.35,2.38,2.58,2.98,1.17,.57,2.49,.86,3.92,.86,5.21,0,12.89-4.12,22.82-12.25,6.34-5.19,14.25-12.72,16.66-17.01,2.5-4.45,.63-11.1-16.36-31.89-8.6-10.52-18.32-21.23-23.35-26.68-.34-.37-.58-.63-.06-2.06,.73-2.02,2.54-4.62,4.45-7.38,2.4-3.47,5.12-7.39,6.81-11.7,1.14-2.93,1.02-5.86-.35-8.47-3.38-6.45-13.19-8.77-21.84-10.82-2.3-.55-5.44-1.29-6.35-1.73-1.31-.96-2.62-1.43-3.98-1.43h0Z"/>
  <path d="M616.06,241.77c1.75,0,1.18,8.34,8.37,9.29,8.36,1.1-4.04,113.34-4.04,113.34-4.12,.29-7.84,.42-11.18,.42-19.89,0-26.82-4.7-29.16-9.51-7.73-15.9,27.45-47.84,20.64-67.18-2.99-8.5-4.64-17.61-8.98-25.52-.46-.84-.92-1.68-.93-2.86-.1-8.11,21.31-13.96,24.2-17.24,.45-.51,.8-.74,1.08-.74m0-5c-1.74,0-3.33,.77-4.72,2.3-.81,.62-3.74,1.96-5.89,2.95-8.82,4.05-19.79,9.1-19.68,17.79,.03,2.44,.95,4.1,1.55,5.21,2.63,4.79,4.2,10.17,5.86,15.86,.85,2.92,1.74,5.94,2.78,8.9,2.7,7.68-4.37,20.24-10.62,31.32-7.59,13.47-14.76,26.2-9.81,36.39,4.03,8.29,15.04,12.33,33.66,12.33,3.54,0,7.42-.15,11.53-.43,2.41-.17,4.36-2.04,4.62-4.44,.03-.28,3.13-28.48,5.17-56.45,1.2-16.49,1.81-29.71,1.79-39.28-.02-14.71-1.14-22.32-7.25-23.12-1.41-.19-1.93-.85-2.94-3.75-.58-1.67-1.94-5.58-6.08-5.58h0Z"/>
  <path d="M345.7,544.39c14.53,0,25.57,.44,26,1.76,1.29,3.96,0,261.33,0,261.33l-102.47-3.17,4.4-258.16s43.01-1.76,72.07-1.76m0-5v0c-28.83,0-71.85,1.75-72.28,1.76-2.65,.11-4.75,2.26-4.79,4.91l-4.4,258.16c-.05,2.73,2.11,5,4.84,5.08l102.47,3.17c.05,0,.1,0,.15,0,1.29,0,2.54-.5,3.47-1.4,.97-.94,1.52-2.22,1.53-3.57,0-.64,.32-65.09,.48-129.19,.32-130.47-.28-132.34-.73-133.71-1.27-3.89-5.44-4.42-12.17-4.82-4.4-.26-10.65-.39-18.58-.39h0Z"/>
  <path d="M676.53,542.23c13.95,0,24.54,.44,24.96,1.76l4.45,271.41-102.8-13.25,4.22-258.16s41.29-1.76,69.18-1.76m0-5v0c-27.68,0-68.98,1.75-69.4,1.76-2.64,.11-4.74,2.27-4.79,4.91l-4.22,258.16c-.04,2.55,1.84,4.72,4.36,5.04l102.8,13.25c.21,.03,.43,.04,.64,.04,1.22,0,2.41-.45,3.33-1.27,1.08-.97,1.69-2.36,1.67-3.81l-4.45-271.41c0-.48-.08-.95-.23-1.41-1.23-3.94-5.3-4.47-11.86-4.87-4.23-.26-10.24-.39-17.86-.39h0Z"/>
  <path d="M825.59,718.06c2.66,0,4.49,1.58,5.08,5.11,.78,4.66-8.12,11.88-22.96,20.31-4.48,.34-9.08,1.06-13.76,2.21,10.96-15.83,24.38-27.62,31.65-27.62m-11.37,25.17c35.92,0,62.8,22.57,61.88,27.19-1.21,6.06-49.67,8.48-89.65,9.09-2.73,.04-5.61,.37-8.61,.95,1.98-9.13,6.13-18.57,11.28-27.26,6.88-3.36,13.13-6.62,18.58-9.72,2.2-.17,4.37-.25,6.52-.25m-20.28,2.46c-1.68,2.42-3.29,4.93-4.82,7.51-18.53,9.06-41.55,18.82-65.43,27.98-.9-.96-1.79-1.93-2.65-2.89-1.84-2.03-3.81-3.88-5.88-5.56,25.7-7.49,48.82-15.08,63.41-21.7,5.19-2.35,10.33-4.11,15.37-5.35m-114.63,14.39c12.23,0,25.37,4.15,35.85,12.65-22.52,6.56-47.04,13.05-69.56,18.76-2.31-2.55-3.17-5.61-2.03-9.36,4.45-14.53,19.27-22.05,35.74-22.05m98.53,20.38c-1.1,5.09-1.53,10.08-1.08,14.8,1.26,13.23-2.21,18.37-8.26,18.37-7.49,0-18.93-7.88-30.26-18.1,14.54-6.96,28.02-12.85,39.61-15.08m-54.14,.72c4.6,4.93,9.56,9.86,14.54,14.35-8.36,4-17.07,8.35-25.98,12.56-10.07-2.61-28.84-3.94-44.28-7.2,17.95-5.79,37.1-12.57,55.73-19.72m-78.1,10.31c4.05,4.47,12.54,7.33,22.37,9.41-33.28,10.74-62.45,18.08-76.57,18.08-2.48,0-4.49-.23-5.99-.7-21.79-6.94-21.64-7.76-20.35-7.76,.4,0,.91,.08,.91,.08,0,0,1.35-.3,3.84-.87,10.4-2.37,40.69-9.34,75.8-18.24m66.65,16.61c6.64,1.72,9.5,4,5.14,7.75-5.16,4.45-20.34,5.83-37.83,5.97,10.99-3.8,21.97-8.66,32.69-13.73m-95.46,12.01c12.91,0,37.65,1.73,59.59,1.73,1.07,0,2.14,0,3.19-.01-13.2,4.56-26.4,7.59-39.12,7.59-6.61,0-13.08-.82-19.36-2.66-17.94-5.26-15.86-6.65-4.29-6.65m208.8-107.04c-10.09,0-24.46,13.94-34.68,28.24-4.87,1.31-9.71,3.05-14.4,5.18-12.59,5.71-32.86,12.68-60.3,20.74-10.49-7.74-23.78-12.14-36.89-12.14-9.29,0-17.9,2.16-24.9,6.26-7.73,4.52-13.13,11.21-15.62,19.33-.8,2.61-.94,5.12-.43,7.49-32.1,8.06-59.13,14.29-69.67,16.69-1.37,.31-2.39,.54-3.03,.69-.19-.01-.4-.02-.61-.02-3.27,0-5.07,2.19-5.41,4.36-.22,1.39-.06,4,3.4,5.79,.8,.41,1.96,.91,3.54,1.52,3.54,1.36,9.36,3.33,17.31,5.86,1.98,.63,4.44,.94,7.5,.94,3.33,0,7.29-.37,11.67-1.01,.89,2.92,4.25,4.33,5.87,5,2.36,.99,5.87,2.16,10.74,3.59,6.47,1.9,13.46,2.86,20.77,2.86,11.91,0,25-2.49,39.98-7.6,22.33-.23,34.75-2.45,40.23-7.18,3.88-3.35,4.12-6.54,3.63-8.62-.23-.98-.63-1.84-1.16-2.59,2.08-1.01,4.13-2.01,6.16-3,2.79-1.36,5.47-2.67,8.11-3.94,13.09,11.38,23.54,17.15,31.09,17.15,3.73,0,6.93-1.35,9.26-3.91,3.58-3.94,4.88-10.46,3.98-19.94-.29-3.07-.17-6.4,.38-9.95,1.55-.2,3.03-.31,4.41-.33,16.46-.25,40.18-.89,59.7-2.52,28.07-2.34,33.74-5.4,34.77-10.59,.63-3.13-1.28-5.9-2.76-7.72-6.08-7.41-26.34-21.88-53.82-24.9,8.57-6.34,12.01-11.52,11.18-16.44-.97-5.81-4.71-9.28-10.01-9.28h0Zm-93.09,70.07c16.54-6.47,31.96-12.97,45.51-19.16-1.8,4.18-3.24,8.29-4.29,12.26-10.16,2.41-21.36,7.1-34.59,13.34-2.19-2.04-4.4-4.19-6.63-6.44h0Zm-73.74,10.16c20.44-5.27,38.96-10.3,55.21-15,.32,.29,.64,.58,.95,.88-15.89,5.97-32.05,11.64-47.2,16.56-3.42-.76-6.41-1.57-8.95-2.44h0Zm-22.8,22.38c11.82-3.2,23.41-6.76,32.29-9.61,7.44,1.5,15.59,2.61,22.84,3.59,1.47,.2,2.93,.4,4.36,.59-6.1,2.63-11.54,4.77-16.74,6.59-.77,0-1.55,0-2.33,0-12.31,0-25.46-.55-37.07-1.03-1.14-.05-2.25-.09-3.35-.14h0Z"/>
  <path d="M178.05,718.33c7.23,0,20.58,11.74,31.49,27.49-4.66-1.15-9.23-1.86-13.69-2.2-14.76-8.39-23.62-15.57-22.85-20.2,.59-3.51,2.41-5.08,5.05-5.08m11.31,25.04c2.13,0,4.29,.08,6.48,.25,5.43,3.08,11.65,6.33,18.49,9.67,5.12,8.64,9.26,18.03,11.23,27.12-2.99-.57-5.85-.91-8.57-.95-39.78-.6-87.99-3.01-89.2-9.04-.92-4.59,25.83-27.06,61.57-27.05m20.17,2.45c5.01,1.24,10.13,2.98,15.29,5.32,14.52,6.59,37.52,14.13,63.09,21.59-2.06,1.67-4.02,3.52-5.85,5.53-.86,.95-1.75,1.91-2.64,2.87-23.76-9.11-46.66-18.83-65.1-27.84-1.52-2.57-3.13-5.07-4.8-7.47m114.06,14.32c16.39,0,31.14,7.48,35.56,21.94,1.14,3.73,.28,6.78-2.02,9.31-22.42-5.68-46.81-12.13-69.21-18.66,10.42-8.46,23.5-12.59,35.67-12.59m-98.03,20.28c11.53,2.22,24.94,8.08,39.41,15-11.28,10.17-22.66,18.01-30.11,18.01-6.02,0-9.47-5.12-8.22-18.28,.45-4.69,.02-9.66-1.08-14.72m53.87,.72c18.53,7.11,37.58,13.85,55.45,19.62-15.37,3.25-34.04,4.57-44.06,7.17-8.86-4.19-17.53-8.52-25.85-12.5,4.95-4.47,9.89-9.38,14.46-14.28m77.7,10.26c34.94,8.85,65.07,15.79,75.42,18.14,2.48,.56,3.82,.86,3.82,.86,0,0,.5-.08,.9-.08,1.28,0,1.43,.82-20.25,7.72-1.49,.47-3.49,.7-5.96,.7-14.05,0-43.08-7.31-76.19-17.99,9.78-2.07,18.23-4.91,22.26-9.36m-66.32,16.52c10.66,5.04,21.59,9.88,32.52,13.66-17.4-.14-32.5-1.52-37.64-5.94-4.33-3.74-1.49-6,5.12-7.71m94.98,11.95c11.51,0,13.58,1.38-4.27,6.61-6.25,1.83-12.69,2.64-19.27,2.64-12.66,0-25.79-3.01-38.93-7.55,1.05,0,2.11,.01,3.17,.01,21.82,0,46.44-1.72,59.29-1.72m-207.75-106.53h0c-5.28,0-9.02,3.46-9.98,9.26-.82,4.89,2.59,10.05,11.09,16.34-27.32,3.02-47.46,17.4-53.51,24.77-1.48,1.81-3.38,4.57-2.76,7.7,1.03,5.17,6.67,8.23,34.62,10.56,19.43,1.62,43.03,2.25,59.4,2.5,1.37,.02,2.84,.13,4.37,.32,.54,3.52,.66,6.83,.37,9.87-.9,9.44,.4,15.93,3.97,19.86,2.32,2.55,5.51,3.9,9.23,3.9,7.52,0,17.92-5.74,30.94-17.06,2.63,1.27,5.29,2.57,8.05,3.92,2.02,.98,4.06,1.98,6.12,2.98-.53,.75-.93,1.59-1.16,2.56-.49,2.08-.25,5.27,3.62,8.6,5.46,4.71,17.82,6.92,40.05,7.15,14.91,5.09,27.93,7.56,39.78,7.56,7.28,0,14.23-.96,20.67-2.85,4.84-1.42,8.34-2.59,10.69-3.57,1.61-.67,4.95-2.07,5.85-4.97,4.36,.64,8.29,1.01,11.6,1.01,3.06,0,5.5-.31,7.47-.93,7.91-2.52,13.7-4.48,17.22-5.83,1.58-.6,2.73-1.1,3.53-1.51,3.46-1.79,3.61-4.39,3.39-5.78-.33-2.1-2.16-4.36-5.41-4.36-.2,0-.41,0-.6,.02-.64-.14-1.65-.37-3.01-.68-10.49-2.39-37.37-8.59-69.3-16.6,.5-2.35,.36-4.85-.43-7.44-2.47-8.09-7.85-14.74-15.55-19.25-6.97-4.08-15.54-6.23-24.79-6.23h0c-13.05,0-26.28,4.38-36.71,12.08-27.29-8.01-47.47-14.95-59.99-20.63-4.67-2.12-9.48-3.85-14.33-5.15-10.17-14.23-24.47-28.1-34.52-28.1h0Zm51.63,62.85c-1.04-3.92-2.47-7.99-4.24-12.12,13.45,6.15,28.76,12.59,45.18,19.02-2.2,2.22-4.39,4.35-6.55,6.37-13.15-6.21-24.28-10.87-34.39-13.26h0Zm58.54,2.93c.3-.28,.6-.56,.9-.84,16.14,4.67,34.53,9.67,54.84,14.9-2.52,.85-5.46,1.65-8.82,2.39-15.06-4.88-31.13-10.52-46.92-16.46h0Zm19.41,30.94c1.39-.19,2.82-.38,4.25-.58,7.2-.97,15.32-2.07,22.72-3.57,8.8,2.82,20.26,6.35,31.97,9.52-1.04,.04-2.1,.09-3.17,.13-11.55,.48-24.64,1.02-36.88,1.02-.77,0-1.54,0-2.31,0-5.15-1.8-10.54-3.92-16.57-6.52h0Z"/>
  <path class="cls-2" d="M470.57,122.99c4.34,1.13,10.56,2.03,13.91-1.28,3.17-3.13,2.35-8.64,2.12-10.46-3.06-23.96,9.01-83.73,7.4-83.95-.53-.07-1.7,4.38-3.77,15.36-.45,2.4-1.16,4.98-2.1,7.72-22.61,66.09-179.77,226.42-179.77,226.42-150.49,134.12,58.26,267.23,58.26,267.23,0,0-39.31,15-38.71,41.9,.6,26.9,297.69-3.86,297.69-3.86,0,0,51.07-21.78-6.06-38.04,0,0,208.75-133.11,58.26-267.23,0,0-157.17-160.33-179.77-226.42-.94-2.74-1.64-5.32-2.1-7.72-9.82-51.92,.62,42.22,3.7,69.22,.49,4.33,.8,6.93,.8,6.93-.32,1.34-.66,3.77,.7,5.31,2.29,2.6,7.75,.67,9.61,.01,3.14-1.11,5.32-2.88,6.58-4.08,3.59,1.04,7.18,2.08,10.77,3.12"/>
  <path d="M425.34,36.21l44.91,86.95s-25.43,9.73-43.06,31.04l4.9-8.22-47.49-101.38,40.74-8.38m-148.26,50.27l136.97,89.77,1.02-1.71c-8.23,21.22-6.61,49.45,19.55,85.52L43.52,388.89l18.96-60.08,356.6-87.03-314.47,4.57,48.75-63.3,258.34,35.51L223.32,120.4l53.75-33.92m150.11,67.72l-12.12,20.34c2.98-7.69,7.25-14.45,12.12-20.34m-1.85-122.99c-.33,0-.67,.03-1.01,.1l-40.74,8.38c-1.5,.31-2.78,1.29-3.46,2.66-.69,1.37-.71,2.98-.06,4.36l46.37,98.98-3.35,5.62c-4.58,5.58-8.29,11.49-11.09,17.62l-132.18-86.64c-.83-.55-1.79-.82-2.74-.82s-1.85,.26-2.67,.77l-53.75,33.92c-1.51,.96-2.4,2.65-2.33,4.43,.07,1.79,1.1,3.4,2.69,4.23l162.83,84.84-229.8-31.59c-.23-.03-.46-.05-.68-.05-1.54,0-3.01,.71-3.96,1.95l-48.75,63.3c-1.17,1.52-1.37,3.58-.51,5.29,.85,1.69,2.58,2.76,4.47,2.76,.02,0,.05,0,.07,0l270.19-3.93L61.29,323.95c-1.7,.41-3.06,1.69-3.58,3.35l-18.96,60.08c-.56,1.79-.08,3.74,1.26,5.06,.95,.94,2.22,1.44,3.51,1.44,.52,0,1.05-.08,1.56-.25l391.09-128.83c1.52-.5,2.7-1.69,3.19-3.21,.49-1.52,.23-3.18-.71-4.47-21.61-29.8-28.03-56.84-19.08-80.39l11.7-19.63c16.53-19.79,40.52-29.18,40.76-29.27,1.33-.51,2.37-1.56,2.88-2.89,.5-1.33,.42-2.81-.23-4.07l-44.91-86.95c-.87-1.68-2.6-2.71-4.44-2.71h0Z"/>
  <path d="M572.97,36.21l40.74,8.38-47.49,101.38,4.9,8.22c-17.63-21.31-43.06-31.04-43.06-31.04l44.91-86.95m148.26,50.27l53.75,33.92-188.38,98.15,258.34-35.51,48.75,63.3-314.47-4.57,356.6,87.03,18.96,60.08-391.09-128.83c26.16-36.07,27.78-64.3,19.55-85.52l1.02,1.71,136.97-89.77m-150.11,67.72c4.87,5.88,9.14,12.65,12.12,20.34l-12.12-20.34m1.85-122.99c-1.84,0-3.57,1.02-4.44,2.71l-44.91,86.95c-.65,1.26-.74,2.75-.23,4.08,.51,1.33,1.56,2.38,2.88,2.89,.24,.09,24.22,9.48,40.75,29.27l11.7,19.63c8.95,23.55,2.53,50.59-19.08,80.39-.94,1.29-1.2,2.95-.71,4.47,.49,1.52,1.68,2.71,3.19,3.21l391.09,128.83c.51,.17,1.04,.25,1.56,.25,1.29,0,2.56-.5,3.51-1.44,1.33-1.32,1.82-3.27,1.26-5.06l-18.96-60.08c-.53-1.67-1.88-2.94-3.58-3.35l-313.58-76.53,270.19,3.93s.05,0,.07,0c1.89,0,3.62-1.07,4.47-2.76,.86-1.72,.66-3.77-.51-5.29l-48.75-63.3c-.95-1.24-2.42-1.95-3.96-1.95-.23,0-.45,.02-.68,.05l-229.8,31.59,162.83-84.84c1.59-.83,2.61-2.44,2.69-4.23,.07-1.79-.81-3.48-2.33-4.43l-53.75-33.92c-.82-.51-1.74-.77-2.67-.77s-1.91,.27-2.74,.82l-132.18,86.64c-2.79-6.13-6.51-12.04-11.09-17.62l-3.35-5.62,46.37-98.98c.65-1.39,.63-2.99-.06-4.36-.69-1.37-1.96-2.35-3.46-2.66l-40.74-8.38c-.34-.07-.67-.1-1.01-.1h0Z"/>
  <g>
    <g>
      <path class="cls-1" d="M434.89,326.54c-6.08,0-13.35-7.86-19.76-14.79-.91-.98-1.78-1.93-2.61-2.8-5.68-5.99-22.3-22.77-26.12-26.62-.59-.4-1.06-.94-1.35-1.57-.52-1.1-.17-2.42,.83-3.11,.43-.3,.94-.45,1.43-.45,.65,0,1.29,.25,1.78,.74l.26,.26c.11,.01,.26,.03,.47,.03,1.87,0,4.53-.97,5.07-1.39,.49-.48,1.2-.77,1.96-.77,1.58,0,2.62,1.09,4.35,2.89,2.28,2.38,6.09,6.36,12.09,8.82,11.45,4.7,17.02,11.68,22.61,19.66,4.49,6.4,7.02,11.11,5.74,14.78-.68,1.95-2.31,3.31-4.83,4.06-.6,.18-1.24,.27-1.9,.27Z"/>
      <path d="M396.84,278.56c1.51,0,5.72,7.52,15.48,11.52,10.45,4.29,15.61,10.37,21.52,18.78,5.9,8.41,7.95,13.32,2.25,15-.38,.11-.78,.17-1.19,.17-5.78,0-14.51-10.43-20.56-16.81-5.79-6.11-22.8-23.27-26.36-26.87,.47,.25,1.11,.36,1.83,.36,2.48,0,5.92-1.23,6.75-2.04,.08-.08,.17-.12,.28-.12m-9.53,1.13s.23,.24,.66,.67c-.3-.16-.53-.38-.66-.67m9.53-6.13c-1.27,0-2.47,.44-3.44,1.24-.57,.29-2,.76-3.1,.88-.88-.66-1.93-.99-2.99-.99-1,0-2,.3-2.87,.9-1.99,1.4-2.69,4.02-1.66,6.23,.45,.96,1.13,1.78,1.99,2.42,4.09,4.12,20.34,20.54,25.93,26.43,.82,.86,1.69,1.8,2.59,2.78,8.45,9.13,14.94,15.59,21.6,15.59,.9,0,1.78-.12,2.61-.37,4.16-1.23,5.83-3.74,6.49-5.63,1.64-4.7-.98-9.8-6.06-17.04-5.83-8.3-11.63-15.58-23.71-20.53-5.51-2.26-8.95-5.86-11.23-8.23-1.88-1.97-3.51-3.66-6.15-3.66h0Z"/>
    </g>
    <g>
      <path class="cls-1" d="M470.87,336.79c-2.03,0-3.56-.23-4.66-.72-.16-.07-.93-.3-3.91-.3-1.17,0-2.46,.03-3.77,.06-1.42,.03-2.87,.07-4.25,.07-4.05,0-6.46-.32-8.06-1.06-3.62-1.68-8.17-2.58-8.22-2.59-.99-.19-1.77-.96-1.97-1.94s.2-2,1.03-2.57c1.81-1.24,3.71-2.74,4.14-3.25,.35-.6,1.16-1.48,2.91-1.48,1.16,0,2.69,.36,4.63,.82,2.02,.48,4.31,1.02,5.82,1.02h.12c1.06-.02,2.8-1.07,4.19-1.91,1.82-1.1,3.54-2.13,5.31-2.13,1.17,0,2.24,.47,3.01,1.33,1.85,2.07,5.54,4.42,6.65,4.45,.24-.03,.53-.04,.8-.04,1.55,0,2.73,.47,3.43,.75,.08,.03,.15,.06,.21,.09,2.4,.11,2.73,2.74,2.9,4.16,.02,.15,.04,.34,.07,.51,.21,.31,.36,.66,.42,1.05,.19,1.22-.56,2.4-1.74,2.77-.22,.07-.47,.11-.7,.12-.08,.01-.17,.03-.27,.04-1.5,.23-5.01,.75-8.1,.75Z"/>
      <path d="M464.18,323.31c.45,0,.83,.15,1.15,.5,1.87,2.09,6.3,5.28,8.51,5.28,.08,0,.15,0,.22-.01,.2-.02,.4-.03,.58-.03,1.71,0,2.78,.84,3.4,.84,.02,0,.05,0,.07,0,0,0,.01,0,.02,0,.62,0,.53,3.42,.98,3.62-.69,.09-4.84,.8-8.25,.8-1.47,0-2.8-.13-3.65-.51-.93-.41-2.74-.51-4.92-.51-2.44,0-5.35,.13-8.02,.13-2.92,0-5.57-.16-7.01-.83-3.94-1.83-8.8-2.77-8.8-2.77,0,0,4.32-2.96,4.88-4.04,.09-.18,.36-.25,.76-.25,1.98,0,7.23,1.84,10.46,1.84,.06,0,.11,0,.17,0,3.22-.07,7.13-4.03,9.45-4.03m15.02,10.18s.01,0-.01,.01c-.01,0-.02,0-.04,0-.01,0-.03,0-.04,0,.05,0,.08,0,.09,0m-15.02-15.18c-2.46,0-4.57,1.27-6.6,2.49-.9,.54-2.39,1.44-3,1.55h-.02c-1.22,0-3.46-.53-5.25-.95-2.1-.5-3.75-.89-5.21-.89-2.76,0-4.21,1.44-4.88,2.43-.58,.57-2.3,1.87-3.58,2.75-1.66,1.14-2.48,3.17-2.07,5.14,.41,1.97,1.97,3.51,3.95,3.89,.04,0,4.33,.86,7.64,2.4,1.98,.92,4.62,1.3,9.12,1.3,1.43,0,2.9-.04,4.31-.07,1.32-.03,2.58-.06,3.71-.06,2.08,0,2.85,.11,3.07,.16,1.42,.59,3.17,.86,5.5,.86,3.27,0,6.91-.55,8.47-.78,.05,0,.1-.02,.15-.02,.41-.03,.82-.1,1.21-.23,2.35-.74,3.83-3.1,3.46-5.54-.08-.53-.25-1.03-.48-1.49-.07-.58-.15-1.24-.31-1.88-.68-2.87-2.67-4.13-4.45-4.41-.83-.33-2.31-.9-4.28-.9-.2,0-.41,0-.61,.02-1.14-.41-3.74-2.21-4.98-3.59-1.25-1.4-2.98-2.16-4.87-2.16h0Z"/>
    </g>
    <g>
      <path class="cls-1" d="M547.26,306.84c-.89,0-1.59-.11-2.17-.33-.1-.01-.36-.04-.92-.04-.41,0-.86,.01-1.32,.02-.52,.01-1.06,.03-1.57,.03-1.73,0-2.76-.15-3.58-.53-.92-.43-2.18-.73-2.59-.81-.99-.19-1.76-.96-1.97-1.95-.2-.99,.2-2,1.03-2.57,.43-.3,.94-.68,1.15-.87,.51-.7,1.34-1.11,2.29-1.11,.61,0,1.27,.16,2.04,.34,.5,.12,1.24,.29,1.63,.32,.2-.08,.58-.31,.82-.45,.78-.47,1.66-1,2.74-1,.88,0,1.69,.36,2.28,1.01,.32,.36,1.02,.87,1.4,1.05,.03,0,.06,0,.08,0,.76,0,1.36,.2,1.7,.33,.85,.13,1.94,.71,2.23,2.75,.09,.2,.15,.41,.18,.63,.19,1.22-.55,2.4-1.72,2.77-.18,.06-.38,.1-.57,.11h-.03c-.57,.09-1.92,.29-3.15,.29Z"/>
      <path d="M544.86,300.39c.16,0,.3,.05,.41,.18,.67,.75,2.27,1.9,3.06,1.9,.03,0,.05,0,.08,0,.07,0,.14-.01,.21-.01,.62,0,1,.3,1.22,.3,0,0,.02,0,.02,0,0,0,0,0,0,0,.22,0,.19,1.23,.35,1.3-.25,.03-1.74,.29-2.97,.29-.53,0-1.01-.05-1.31-.18-.33-.15-.98-.19-1.77-.19-.88,0-1.92,.05-2.89,.05-1.05,0-2-.06-2.52-.3-1.42-.66-3.17-1-3.17-1,0,0,1.55-1.07,1.76-1.46,.03-.06,.13-.09,.27-.09,.71,0,2.6,.66,3.76,.66,.02,0,.04,0,.06,0,1.16-.02,2.57-1.45,3.4-1.45m5.4,3.66s0,0,0,0c0,0,0,0-.01,0,0,0-.01,0-.01,0,.02,0,.03,0,.03,0m-5.4-8.66c-1.76,0-3.1,.8-4,1.34-.22-.05-.44-.1-.61-.14-.88-.21-1.71-.41-2.61-.41-1.65,0-3.12,.68-4.1,1.87-.2,.16-.51,.39-.76,.56-1.66,1.14-2.47,3.17-2.06,5.14,.41,1.97,1.97,3.5,3.94,3.89,.44,.09,1.4,.34,2,.62,1.45,.67,3.08,.77,4.63,.77,.53,0,1.09-.01,1.63-.03,.44-.01,.86-.02,1.26-.02,.18,0,.31,0,.41,0,.78,.25,1.65,.36,2.68,.36,1.24,0,2.51-.17,3.49-.31,.35-.04,.69-.11,1.02-.21,2.35-.74,3.82-3.1,3.44-5.53-.05-.32-.13-.62-.23-.91-.54-2.99-2.42-4.05-3.75-4.42-.41-.16-1.07-.38-1.92-.47-.13-.1-.26-.2-.33-.28-1.03-1.15-2.54-1.82-4.12-1.82h0Z"/>
    </g>
    <g>
      <path class="cls-1" d="M478.95,317.41c-.85,0-2.11-.28-3.23-1.62-.84-.88-5.67-1.24-7.98-1.42-4.67-.36-7.76-.59-9-2.79-.28-.49-.95-1.02-1.73-1.63-1.46-1.15-3.47-2.74-4.71-5.62-.39-.9-.81-1.77-1.22-2.61-1.36-2.78-2.76-5.66-2.52-9.24,.26-3.97,.85-5.48,1.09-5.95,.38-.74,1.1-1.23,1.93-1.33,.1-.01,.2-.02,.29-.02,.72,0,1.41,.31,1.89,.86,.94,1.07,3.97,3.87,6.63,3.87,.59,0,1.13-.15,1.65-.44,4.73-2.73,8.35-3.77,10.83-4.27,.26-.64,.6-1.72,.86-2.56,1.27-4.07,2.85-9.14,6.88-9.91,.7-.13,1.4-.2,2.09-.2,4.16,0,6.64,2.37,6.91,2.64,.35,.35,.58,.79,.68,1.27,.88,4.34,2.77,8.89,3.89,9.38,.89,.08,3.18,.31,3.4,2.52,.22,2.19-1.83,2.82-3.18,3.23-.55,.17-1.74,.53-2.29,.83-.28,.92-.54,3.35-.74,5.17-.71,6.57-1.31,10.67-3.82,12.23-.62,.39-1.64,1.74-2.45,2.83-1.75,2.34-3.57,4.76-6.14,4.76Z"/>
      <path d="M482.69,275.04c3.24,0,5.14,1.91,5.14,1.91,0,0,2.22,10.97,6,11.35,3.78,.38-2.07,.91-3.65,2.44-1.58,1.53-1.1,15.18-3.96,16.97-2.4,1.49-4.96,7.21-7.26,7.21-.45,0-.89-.22-1.31-.72-2.61-3.11-15.46-1.59-16.73-3.83s-4.64-3.11-6.32-7.01-3.81-6.83-3.55-10.71c.25-3.88,.82-4.96,.82-4.96,0,0,4.1,4.74,8.52,4.74,.97,0,1.94-.23,2.9-.78,5.33-3.07,9.14-3.83,10.89-4.14s2.68-11.5,6.89-12.31c.57-.11,1.11-.16,1.62-.16m0-5c-.85,0-1.7,.08-2.56,.24-5.51,1.05-7.41,7.16-8.8,11.62-.11,.36-.24,.77-.37,1.16-2.31,.58-5.86,1.75-10.19,4.24-.14,.08-.24,.11-.4,.11-1.34,0-3.66-1.79-4.76-3.03-.95-1.1-2.33-1.72-3.76-1.72-.2,0-.39,.01-.59,.03-1.65,.19-3.08,1.2-3.84,2.67-.69,1.33-1.15,3.67-1.37,6.94-.28,4.25,1.34,7.57,2.77,10.5,.4,.82,.81,1.66,1.17,2.51,1.49,3.46,3.88,5.35,5.46,6.59,.41,.32,.96,.76,1.13,.96,1.91,3.3,5.91,3.61,10.96,3.99,1.91,.15,5.38,.41,6.58,.89,1.32,1.39,3.01,2.15,4.82,2.15,3.82,0,6.22-3.2,8.14-5.77,.54-.72,1.43-1.91,1.83-2.24,3.67-2.34,4.25-7.77,4.93-14.05,.12-1.1,.28-2.57,.44-3.62,.31-.1,.63-.2,.84-.26,1.32-.41,5.35-1.64,4.93-5.87-.15-1.46-.96-3.89-4.69-4.63-.85-1.27-2.05-4.63-2.64-7.52-.2-.96-.67-1.84-1.36-2.53-.56-.56-3.62-3.38-8.68-3.38h0Z"/>
    </g>
    <g>
      <path class="cls-1" d="M502.04,319.78c-1.05,0-2.07-.54-2.87-1.53-.97-1.18-1.83-3.29-1.34-5.68,.17-.83-1.7-2.35-2.49-2.65-1.63-.41-2.68-1.34-1.6-9.93,.95-7.56,3.28-16.57,9.01-16.57,.57,0,1.15,.1,1.73,.29,.67,.23,1.45,.34,2.3,.34,5.55,0,12.36-4.57,12.43-4.62,.43-.29,.92-.43,1.4-.43,.65,0,1.3,.25,1.79,.75,.21,.21,2.02,2.14,2.37,5.37,.41,3.71-4.73,5.07-6.93,5.65-2.75,.73-5.79,1.2-6.83,1.31-.28,.03-.68,.05-1.18,.06-1.97,.06-5.64,.16-6.71,2.43-.15,.32-.23,.56-.27,.71,.24,.1,.58,.22,.82,.29,.35,.11,.71,.23,1.05,.38,.62-.26,1.67-.83,2.41-1.24,2.09-1.15,4.07-2.23,5.78-2.23,.55,0,1.06,.11,1.52,.32,1.06,.49,1.72,1.44,1.76,2.53,.09,2.22-2.12,3.45-5.18,5.15-.24,.13-.51,.29-.79,.44,1.22,1.79,3.92,4.79,4.94,5.92,.81,.9,1.24,1.38,1.51,1.72,1,1.29,.76,2.43,.52,2.99-.64,1.51-2.16,1.69-2.9,1.77-.91,.1-1.61,.23-2.19,.87-.71,.78-1.63,1.21-2.6,1.21-1.86,0-3.17-1.38-4.33-3.41,.04,2.78,.06,4.29-.11,5.12-.36,1.82-1.77,2.64-3,2.64Z"/>
      <path d="M520.6,281.51s1.4,1.43,1.67,3.89c.27,2.46-9.98,4.04-11.54,4.21s-7.86-.39-9.88,3.91c-2.02,4.3,2.03,4.08,3.26,4.96,.1,.07,.23,.1,.39,.1,1.67,0,6.36-3.59,8.39-3.59,.18,0,.34,.03,.47,.09,1.79,.82-4.7,3.57-6.05,4.73-1.34,1.16,6.3,8.94,7.36,10.3,1.05,1.36-2.16-.1-4.44,2.41-.24,.27-.49,.39-.75,.39-2.14,0-4.64-8.46-5.98-9.69-.08-.07-.15-.1-.21-.1-1.21,0-.35,11.77-.7,13.52-.09,.43-.29,.63-.55,.63-.84,0-2.21-2-1.76-4.21,.59-2.9-3.3-5.3-4.23-5.54-.89-.23,.64-21.61,6.69-21.6,.3,0,.61,.05,.92,.16,.98,.33,2.03,.47,3.1,.47,6.41,0,13.83-5.05,13.83-5.05m0-5c-.97,0-1.95,.28-2.8,.86h0c-1.73,1.16-7.07,4.19-11.03,4.19-.58,0-1.09-.07-1.5-.21-.83-.28-1.68-.42-2.53-.42h0c-6.06,0-9.92,6.31-11.48,18.74-.25,2.01-.41,4-.44,5.59-.03,1.61-.1,5.79,3.61,7,.25,.14,.59,.4,.82,.62-.27,2.48,.46,5.07,1.98,6.94,1.29,1.58,3,2.45,4.81,2.45,2.67,0,4.91-1.91,5.46-4.65,0,0,0-.01,0-.02,.61,.21,1.26,.32,1.99,.32,1.67,0,3.24-.71,4.42-2,.14-.04,.44-.07,.65-.1,.92-.1,3.71-.42,4.92-3.28,.36-.86,1-3.11-.85-5.49-.32-.41-.77-.92-1.62-1.86-.61-.68-1.91-2.12-3.05-3.49,2.68-1.59,4.85-3.34,4.73-6.45-.03-.7-.19-1.38-.48-1.99,.09-.02,.18-.05,.27-.07,2.33-.62,9.41-2.5,8.77-8.34-.44-3.98-2.63-6.4-3.07-6.85-.97-.99-2.27-1.5-3.57-1.5h0Z"/>
    </g>
    <g>
      <path class="cls-1" d="M537.24,294.11c-1.35,0-2.7-1.04-3.32-2.49-3.45-.23-4.49-8.97-4.49-9.05-.05-2.64,1.57-3.89,3.21-3.95,.41-.09,1.36-1.21,1.87-2.22,.44-.88,1.33-1.39,2.25-1.39,.36,0,.72,.08,1.07,.24,.3,.15,1.36,.72,2.16,2.03,.48,.78,.94,2.32-.87,4.24,.07,.1,.13,.2,.18,.31,.5,.99,.3,1.91-.09,2.73,.41,.23,.81,.44,1.02,.55,.37,.19,.66,.35,.79,.43,1.19,.73,1.32,1.83,1.32,2.27,0,.62-.21,1.48-1.18,2.17-.24,.64-.7,1.15-1.27,1.45,0,.58-.18,1.15-.52,1.61-.5,.67-1.28,1.06-2.13,1.06Z"/>
      <path d="M536.74,277.51s.63,.3,1.1,1.08c.47,.78-2.15,2.57-2.56,2.82-.41,.25-2.27,.85-2.14,2.51,.08,1.09,.58,1.22,1.05,1.22,.15,0,.3-.01,.44-.01,.08,0,.16,0,.23,.02,.01,0,.03,0,.04,0,.49,0,1.37-2.27,1.99-2.27,0,0,.01,0,.02,0,.64,.05-.74,1.76-.93,2.31-.19,.55,3.21,2.16,3.73,2.48,.52,.32-.62,.23-.86,1.35-.04,.17-.12,.24-.25,.24-.7,0-2.6-2.24-3.14-2.47-.02,0-.04-.01-.05-.01-.45,0,1.78,3.91,1.96,4.54,.06,.2,0,.29-.13,.29-.28,0-.89-.47-1.1-1.18-.29-.97-1.63-1.3-2.03-1.3-.02,0-.04,0-.06,0,0,0,0,0,0,0-.31,0-3.61-7.93-1.33-8.01,2.29-.09,4.02-3.61,4.02-3.61m0-5c-1.84,0-3.6,1.02-4.48,2.77-.16,.31-.42,.7-.64,.95-2.51,.5-4.77,2.7-4.7,6.39,.03,1.56,.46,3.51,1.29,5.78,.73,1.99,1.67,4.59,4.08,5.45,1.17,1.68,3.02,2.76,4.94,2.76,1.62,0,3.17-.77,4.13-2.07,.39-.52,.67-1.11,.84-1.72,.39-.37,.72-.8,.98-1.27,1.47-1.37,1.65-3.01,1.65-3.74,0-1.79-.94-3.43-2.52-4.4-.08-.05-.16-.1-.25-.14,.02-.43-.01-.89-.12-1.36,1.36-2.2,1.13-4.34,.16-5.93-1.13-1.85-2.63-2.71-3.22-2.99-.69-.33-1.43-.49-2.15-.49h0Z"/>
    </g>
    <g>
      <path class="cls-1" d="M596.82,325.03c-.27,0-.54-.04-.8-.13-.07-.02-6.61-2.21-10.92-2.21-1.64,0-2.08,.33-2.09,.33-.65,.59-1.27,1.16-2.31,1.16h0c-.99,0-1.9-.59-2.3-1.5-.69-1.59-.75-1.71,5.44-8.4-3.09-2.78-7.51-6.04-10.15-6.2-4.23-.26-8.13-2.44-10.46-3.75-.71,1.42-1.7,3.09-3.7,3.09-.75,0-1.85-.27-2.78-1.56-.41-.56-.82-1.16-1.23-1.76-.62-.91-1.53-2.24-1.99-2.68-.86-.31-1.48-.98-1.7-1.86-.23-.92,.05-1.65,.44-2.19-.19-.21-.38-.43-.57-.65-1.05-1.21-2.13-2.45-3.39-2.52-.93-.05-1.76-.61-2.15-1.46-.39-.85-.27-1.85,.31-2.58,.14-.18,3.57-4.45,8.69-4.45,4.55,0,8.65,3.22,12.17,9.56,1.86,3.35,2.96,4.24,3.34,4.47,.67-.58,1.66-2.77,2.21-3.98,1.35-2.99,2.76-6.08,5.69-6.24,.31-.02,.65-.02,1.01-.02,4.71,0,13.56,1.4,13.94,1.46,1.05,.17,1.88,.98,2.07,2.04,3.14,17.8,2.17,19.65,1.81,20.35,0,.02-.02,.04-.03,.05,.14,.24,.25,.51,.3,.79l1.59,7.87c.18,.88-.13,1.78-.8,2.37-.46,.41-1.05,.62-1.65,.62Z"/>
      <path d="M555.17,288.21c2.89,0,6.42,1.86,9.98,8.27,2.37,4.27,4.16,5.81,5.58,5.81,3.66,0,4.97-10.12,7.97-10.29,.27-.01,.56-.02,.87-.02,4.57,0,13.55,1.43,13.55,1.43,0,0,2.99,16.96,2.06,18.76-.94,1.8,.05,2.49,.05,2.49l1.59,7.87s-6.93-2.34-11.72-2.34c-1.62,0-2.99,.27-3.77,.98-.39,.36-.58,.51-.63,.51-.31,0,6.66-7.51,6.66-7.51,0,0-8.15-8.25-13.51-8.59-5.36-.33-10.45-4.42-11.47-4.42h0c-.85,0-1.67,3.75-2.85,3.75-.24,0-.49-.15-.76-.53-1.6-2.2-3.27-5.08-4.32-5.3-1.04-.23,2.43-1.62,.87-2.36-1.55-.74-3.36-4.84-6.89-5.02,0,0,2.76-3.5,6.73-3.5m0-5h0c-6.21,0-10.22,4.85-10.66,5.4-1.16,1.47-1.4,3.46-.63,5.16,.76,1.68,2.4,2.81,4.24,2.92,.29,.13,.8,.67,1.24,1.15-.17,.74-.15,1.51,.04,2.31,.36,1.45,1.31,2.63,2.61,3.32,.4,.5,1.01,1.4,1.45,2.04,.42,.61,.85,1.24,1.27,1.82,1.64,2.25,3.71,2.59,4.81,2.59,2.13,0,3.57-1.06,4.56-2.27,2.48,1.29,5.8,2.71,9.45,2.93,1.34,.08,4.09,1.82,6.72,3.94-.99,1.09-1.77,1.97-2.34,2.62-1.24,1.42-3.11,3.57-1.81,6.54,.8,1.82,2.6,3,4.59,3,1.67,0,2.82-.79,3.58-1.45,.17-.02,.43-.05,.81-.05,3.24,0,8.52,1.54,10.12,2.08,.52,.18,1.06,.26,1.6,.26,1.2,0,2.38-.43,3.31-1.25,1.34-1.18,1.95-2.99,1.6-4.74l-1.59-7.87c-.02-.09-.04-.18-.06-.27,.51-1.83,.59-6.1-2.01-20.85-.37-2.1-2.03-3.74-4.14-4.07-.38-.06-9.43-1.49-14.33-1.49-.41,0-.79,0-1.14,.03-4.45,.24-6.32,4.38-7.83,7.71-.09,.2-.19,.42-.3,.66-.24-.38-.5-.82-.78-1.33-4-7.2-8.83-10.85-14.35-10.85h0Z"/>
    </g>
    <g>
      <path class="cls-1" d="M516.75,341.18c-.79,0-1.52-.29-2.04-.81-.51-.51-.79-1.19-.79-1.93,0-1.14,.39-2.41,5.1-6.46,4.83-4.14,5.76-4.14,6.45-4.14,1.38,0,2.5,1.12,2.5,2.5,0,1.12-.74,2.07-1.76,2.39-1.22,.7-5.39,4.16-6.95,5.88,0,.02,0,.05,0,.07,0,1.38-1.12,2.5-2.5,2.5h0Z"/>
      <path d="M525.45,330.34c-.79,0-9.04,6.74-9.04,8.1,0-1.36,8.25-8.1,9.04-8.1m-9.04,8.1c0,.15,.1,.24,.33,.24-.23,0-.33-.09-.33-.24m9.04-13.1h0c-1.31,0-2.54,0-8.07,4.75-4.51,3.88-5.96,5.9-5.97,8.35,0,1.4,.54,2.71,1.52,3.7,1,1,2.35,1.55,3.81,1.55,2.4,0,4.41-1.69,4.89-3.95,1.52-1.5,4.45-3.96,5.67-4.75,1.85-.74,3.15-2.54,3.15-4.65,0-2.76-2.24-5-5-5h0Zm-9.04,18.1h0Zm0,0h0Z"/>
    </g>
    <g>
      <path class="cls-1" d="M490.37,335.47c-5.05,0-9.74-1.99-9.94-2.07-1.01-.43-1.62-1.47-1.5-2.56,.12-1.09,.93-1.98,2-2.19,.46-.09,11.36-2.22,16.14-2.22,1.41,0,2.32,.18,3.03,.59,.13,.04,.65,.15,1.95,.15,2.21,0,5.19-.32,7.59-.57,1.11-.12,2.09-.22,2.81-.27,1.94-.15,8.26-1.59,12.02-2.58,1.54-.57,2.1-.73,2.65-.75,.04,0,.09,0,.13,0,1.26,0,2.37,.94,2.53,2.19,.29,2.22-1.49,2.73-3.78,3.34l-1.23,.47c-3.8,1.45-10.17,3.87-15.19,4.5-4.73,.6-8.56,.99-12.26,1.37-1.71,.18-3.36,.34-5.01,.53-.62,.07-1.27,.1-1.93,.1Z"/>
      <path d="M527.25,325.48c.27,0-.59,.26-2.02,.64,1.03-.38,1.74-.63,1.99-.64,0,0,.02,0,.02,0m-2.02,.64c-3.49,1.3-10.62,4.2-15.97,4.87-6.93,.87-12.08,1.32-17.23,1.89-.55,.06-1.11,.09-1.66,.09-4.6,0-8.95-1.87-8.95-1.87,0,0,11.06-2.17,15.66-2.17,.87,0,1.51,.08,1.8,.26,.55,.35,1.72,.48,3.18,.48,3.38,0,8.31-.68,10.59-.85,2.29-.17,9.12-1.77,12.59-2.69m2.02-5.64c-.07,0-.16,0-.23,0-.95,.04-1.8,.31-3.3,.87-3.96,1.04-9.85,2.36-11.45,2.48-.78,.06-1.76,.16-2.89,.28-2.34,.25-5.25,.56-7.33,.56-.58,0-.94-.03-1.14-.05-1.27-.6-2.64-.69-3.84-.69-4.94,0-15.44,2.04-16.62,2.27-2.15,.42-3.78,2.2-4.01,4.38s.99,4.26,3,5.12c.54,.23,5.46,2.27,10.92,2.27,.75,0,1.5-.04,2.21-.12,1.64-.18,3.29-.35,4.99-.52,3.72-.38,7.57-.78,12.32-1.37,5.32-.67,11.86-3.16,15.77-4.65,.4-.15,.76-.29,1.1-.42,.59-.16,1.08-.3,1.43-.4,4.39-1.33,4.16-4.93,4.06-5.64-.32-2.49-2.49-4.36-5.01-4.36h0Z"/>
    </g>
    <g>
      <path class="cls-1" d="M507.62,339.27c-1.44,0-3.51-.61-6.28-1.47-.73-.23-1.38-.43-1.85-.56-1.57-.42-2.13-1.76-1.99-2.83,.32-2.48,3.17-2.48,5.05-2.48,3.87,0,6.43,.87,7.61,2.59,1.03,1.5,.57,2.74,.32,3.2-.31,.58-1.08,1.55-2.87,1.55Z"/>
      <path d="M502.55,334.43c2.06,0,4.74,.33,5.55,1.51,.42,.61,.16,.84-.48,.84-1.63,0-5.75-1.48-7.48-1.95-.62-.16,.68-.4,2.41-.4m0-5h0c-1.89,0-6.92,0-7.53,4.66-.33,2.55,1.28,4.9,3.83,5.57,.39,.1,1.05,.31,1.75,.53,2.98,.93,5.23,1.59,7.02,1.59,2.23,0,4.13-1.08,5.08-2.89,.95-1.8,.77-3.96-.47-5.78-1.67-2.44-4.93-3.68-9.67-3.68h0Z"/>
    </g>
    <g>
      <path class="cls-1" d="M530.47,308.78c-2.26,0-4.09-1.42-4.77-3.7-.32-1.06-.13-2.17,.52-3.05,1.23-1.66,3.61-1.84,4.57-1.84s3.48,.19,4.66,1.96c.62,.94,.72,2.08,.27,3.15-.86,2.04-3.02,3.47-5.25,3.47Z"/>
      <path d="M530.78,302.7c1.54,0,3.08,.56,2.63,1.64-.49,1.16-1.75,1.94-2.94,1.94-1.01,0-1.97-.56-2.38-1.92-.34-1.13,1.18-1.67,2.69-1.67m0-5h0c-1.66,0-4.73,.37-6.57,2.85-1.13,1.51-1.46,3.43-.91,5.26,1,3.33,3.81,5.48,7.17,5.48s6.29-2.01,7.55-5c.77-1.82,.58-3.88-.5-5.5-1.3-1.96-3.76-3.08-6.74-3.08h0Z"/>
    </g>
    <g>
      <path class="cls-1" d="M520.13,301.5c-1.2,0-2.23-.86-2.45-2.04-.22-1.18,.43-2.35,1.54-2.79,.88-.35,5.43-2.08,8.09-2.08,2.19,0,3.07,1.14,3.4,1.83,.44,.9,.38,1.93-.14,2.77-.54,.86-1.45,2.31-10.43,2.31h-.01Z"/>
      <path d="M527.32,297.1c.58,0,1.01,.12,1.15,.42,.72,1.47-7.97,1.48-8.32,1.48h-.01s4.85-1.91,7.18-1.91m0-5c-3.03,0-7.66,1.72-9,2.25-2.24,.88-3.53,3.22-3.09,5.58s2.51,4.07,4.91,4.07c8.73,0,11.14-1.23,12.56-3.49,.98-1.57,1.08-3.51,.27-5.19-.47-.97-1.97-3.23-5.65-3.23h0Z"/>
    </g>
  </g>
</svg>